<svg width="489" height="239" viewBox="0 0 489 239" fill="none" xmlns="http://www.w3.org/2000/svg">
<rect width="489" height="239" fill="#67CCFF"/>
<path d="M59.7778 93.6667H63.3333V97.2222H59.7778V93.6667ZM63.3333 93.6667H66.8889V97.2222H63.3333V93.6667ZM63.3333 97.2222H66.8889V100.778H63.3333V97.2222ZM66.8889 97.2222H70.4444V100.778H66.8889V97.2222ZM59.7778 97.2222H63.3333V100.778H59.7778V97.2222ZM56.2222 97.2222H59.7778V100.778H56.2222V97.2222ZM56.2222 100.778H59.7778V104.333H56.2222V100.778ZM52.6667 100.778H56.2222V104.333H52.6667V100.778ZM59.7778 100.778H63.3333V104.333H59.7778V100.778ZM63.3333 100.778H66.8889V104.333H63.3333V100.778ZM66.8889 100.778H70.4444V104.333H66.8889V100.778ZM70.4444 100.778H74V104.333H70.4444V100.778ZM70.4444 104.333H74V107.889H70.4444V104.333ZM74 104.333H77.5556V107.889H74V104.333ZM66.8889 104.333H70.4444V107.889H66.8889V104.333ZM63.3333 104.333H66.8889V107.889H63.3333V104.333ZM59.7778 104.333H63.3333V107.889H59.7778V104.333ZM56.2222 104.333H59.7778V107.889H56.2222V104.333ZM52.6667 104.333H56.2222V107.889H52.6667V104.333ZM49.1111 104.333H52.6667V107.889H49.1111V104.333ZM56.2222 107.889H59.7778V111.444H56.2222V107.889ZM52.6667 107.889H56.2222V111.444H52.6667V107.889ZM49.1111 107.889H52.6667V111.444H49.1111V107.889ZM45.5556 107.889H49.1111V111.444H45.5556V107.889ZM45.5556 111.444H49.1111V115H45.5556V111.444ZM45.5556 115H49.1111V118.556H45.5556V115ZM49.1111 115H52.6667V118.556H49.1111V115ZM49.1111 111.444H52.6667V115H49.1111V111.444ZM52.6667 111.444H56.2222V115H52.6667V111.444ZM52.6667 115H56.2222V118.556H52.6667V115ZM52.6667 118.556H56.2222V122.111H52.6667V118.556ZM49.1111 118.556H52.6667V122.111H49.1111V118.556ZM45.5556 118.556H49.1111V122.111H45.5556V118.556ZM45.5556 122.111H49.1111V125.667H45.5556V122.111ZM49.1111 122.111H52.6667V125.667H49.1111V122.111ZM52.6667 122.111H56.2222V125.667H52.6667V122.111ZM56.2222 122.111H59.7778V125.667H56.2222V122.111ZM59.7778 122.111H63.3333V125.667H59.7778V122.111ZM63.3333 122.111H66.8889V125.667H63.3333V122.111ZM66.8889 122.111H70.4444V125.667H66.8889V122.111ZM70.4444 118.556H74V122.111H70.4444V118.556ZM74 118.556H77.5556V122.111H74V118.556ZM74 122.111H77.5556V125.667H74V122.111ZM70.4444 122.111H74V125.667H70.4444V122.111ZM77.5556 122.111H81.1111V125.667H77.5556V122.111ZM77.5556 118.556H81.1111V122.111H77.5556V118.556ZM77.5556 115H81.1111V118.556H77.5556V115ZM77.5556 111.444H81.1111V115H77.5556V111.444ZM77.5556 107.889H81.1111V111.444H77.5556V107.889ZM74 107.889H77.5556V111.444H74V107.889ZM70.4444 107.889H74V111.444H70.4444V107.889ZM66.8889 107.889H70.4444V111.444H66.8889V107.889ZM74 111.444H77.5556V115H74V111.444ZM74 115H77.5556V118.556H74V115ZM70.4444 115H74V118.556H70.4444V115ZM70.4444 111.444H74V115H70.4444V111.444ZM45.5556 125.667H49.1111V129.222H45.5556V125.667ZM49.1111 125.667H52.6667V129.222H49.1111V125.667ZM52.6667 125.667H56.2222V129.222H52.6667V125.667ZM56.2222 125.667H59.7778V129.222H56.2222V125.667ZM59.7778 125.667H63.3333V129.222H59.7778V125.667ZM63.3333 125.667H66.8889V129.222H63.3333V125.667ZM66.8889 125.667H70.4444V129.222H66.8889V125.667ZM70.4444 125.667H74V129.222H70.4444V125.667ZM74 125.667H77.5556V129.222H74V125.667ZM77.5556 125.667H81.1111V129.222H77.5556V125.667ZM77.5556 129.222H81.1111V132.778H77.5556V129.222ZM74 129.222H77.5556V132.778H74V129.222ZM70.4444 129.222H74V132.778H70.4444V129.222ZM66.8889 129.222H70.4444V132.778H66.8889V129.222ZM63.3333 129.222H66.8889V132.778H63.3333V129.222ZM59.7778 129.222H63.3333V132.778H59.7778V129.222ZM56.2222 129.222H59.7778V132.778H56.2222V129.222ZM49.1111 129.222H52.6667V132.778H49.1111V129.222ZM45.5556 129.222H49.1111V132.778H45.5556V129.222ZM52.6667 129.222H56.2222V132.778H52.6667V129.222ZM52.6667 132.778H56.2222V136.333H52.6667V132.778ZM52.6667 136.333H56.2222V139.889H52.6667V136.333ZM52.6667 139.889H56.2222V143.444H52.6667V139.889ZM52.6667 143.444H56.2222V147H52.6667V143.444ZM49.1111 143.444H52.6667V147H49.1111V143.444ZM45.5556 143.444H49.1111V147H45.5556V143.444ZM45.5556 139.889H49.1111V143.444H45.5556V139.889ZM45.5556 136.333H49.1111V139.889H45.5556V136.333ZM45.5556 132.778H49.1111V136.333H45.5556V132.778ZM49.1111 132.778H52.6667V136.333H49.1111V132.778ZM49.1111 136.333H52.6667V139.889H49.1111V136.333ZM49.1111 139.889H52.6667V143.444H49.1111V139.889ZM70.4444 132.778H74V136.333H70.4444V132.778ZM70.4444 136.333H74V139.889H70.4444V136.333ZM70.4444 139.889H74V143.444H70.4444V139.889ZM70.4444 143.444H74V147H70.4444V143.444ZM74 143.444H77.5556V147H74V143.444ZM77.5556 143.444H81.1111V147H77.5556V143.444ZM77.5556 139.889H81.1111V143.444H77.5556V139.889ZM77.5556 136.333H81.1111V139.889H77.5556V136.333ZM77.5556 132.778H81.1111V136.333H77.5556V132.778ZM74 132.778H77.5556V136.333H74V132.778ZM74 136.333H77.5556V139.889H74V136.333ZM74 139.889H77.5556V143.444H74V139.889ZM88.2118 93.6667H91.7674V97.2222H88.2118V93.6667ZM88.2118 97.2222H91.7674V100.778H88.2118V97.2222ZM88.2118 100.778H91.7674V104.333H88.2118V100.778ZM88.2118 104.333H91.7674V107.889H88.2118V104.333ZM88.2118 107.889H91.7674V111.444H88.2118V107.889ZM88.2118 111.444H91.7674V115H88.2118V111.444ZM88.2118 139.889H91.7674V143.444H88.2118V139.889ZM88.2118 143.444H91.7674V147H88.2118V143.444ZM91.7674 143.444H95.3229V147H91.7674V143.444ZM95.3229 93.6667H98.8785V97.2222H95.3229V93.6667ZM91.7674 93.6667H95.3229V97.2222H91.7674V93.6667ZM91.7674 97.2222H95.3229V100.778H91.7674V97.2222ZM95.3229 97.2222H98.8785V100.778H95.3229V97.2222ZM95.3229 100.778H98.8785V104.333H95.3229V100.778ZM95.3229 104.333H98.8785V107.889H95.3229V104.333ZM91.7674 107.889H95.3229V111.444H91.7674V107.889ZM91.7674 104.333H95.3229V107.889H91.7674V104.333ZM91.7674 100.778H95.3229V104.333H91.7674V100.778ZM102.434 107.889H105.99V111.444H102.434V107.889ZM105.99 107.889H109.545V111.444H105.99V107.889ZM109.545 107.889H113.101V111.444H109.545V107.889ZM113.101 107.889H116.656V111.444H113.101V107.889ZM116.656 111.444H120.212V115H116.656V111.444ZM113.101 111.444H116.656V115H113.101V111.444ZM109.545 111.444H113.101V115H109.545V111.444ZM105.99 111.444H109.545V115H105.99V111.444ZM102.434 111.444H105.99V115H102.434V111.444ZM98.8785 111.444H102.434V115H98.8785V111.444ZM91.7674 111.444H95.3229V115H91.7674V111.444ZM95.3229 132.778H98.8785V136.333H95.3229V132.778ZM98.8785 139.889H102.434V143.444H98.8785V139.889ZM98.8785 136.333H102.434V139.889H98.8785V136.333ZM98.8785 143.444H102.434V147H98.8785V143.444ZM102.434 143.444H105.99V147H102.434V143.444ZM105.99 143.444H109.545V147H105.99V143.444ZM109.545 143.444H113.101V147H109.545V143.444ZM113.101 143.444H116.656V147H113.101V143.444ZM109.545 139.889H113.101V143.444H109.545V139.889ZM105.99 139.889H109.545V143.444H105.99V139.889ZM102.434 139.889H105.99V143.444H102.434V139.889ZM113.101 139.889H116.656V143.444H113.101V139.889ZM116.656 139.889H120.212V143.444H116.656V139.889ZM113.101 136.333H116.656V139.889H113.101V136.333ZM109.545 136.333H113.101V139.889H109.545V136.333ZM116.656 136.333H120.212V139.889H116.656V136.333ZM120.212 136.333H123.767V139.889H120.212V136.333ZM120.212 132.778H123.767V136.333H120.212V132.778ZM116.656 129.222H120.212V132.778H116.656V129.222ZM116.656 132.778H120.212V136.333H116.656V132.778ZM113.101 132.778H116.656V136.333H113.101V132.778ZM120.212 129.222H123.767V132.778H120.212V129.222ZM120.212 125.667H123.767V129.222H120.212V125.667ZM116.656 125.667H120.212V129.222H116.656V125.667ZM116.656 122.111H120.212V125.667H116.656V122.111ZM116.656 118.556H120.212V122.111H116.656V118.556ZM120.212 118.556H123.767V122.111H120.212V118.556ZM120.212 115H123.767V118.556H120.212V115ZM120.212 122.111H123.767V125.667H120.212V122.111ZM113.101 125.667H116.656V129.222H113.101V125.667ZM113.101 129.222H116.656V132.778H113.101V129.222ZM113.101 122.111H116.656V125.667H113.101V122.111ZM113.101 118.556H116.656V122.111H113.101V118.556ZM113.101 115H116.656V118.556H113.101V115ZM109.545 115H113.101V118.556H109.545V115ZM116.656 115H120.212V118.556H116.656V115ZM98.8785 115H102.434V118.556H98.8785V115ZM102.434 115H105.99V118.556H102.434V115ZM105.99 115H109.545V118.556H105.99V115ZM102.434 136.333H105.99V139.889H102.434V136.333ZM105.99 136.333H109.545V139.889H105.99V136.333ZM95.3229 143.444H98.8785V147H95.3229V143.444ZM95.3229 139.889H98.8785V143.444H95.3229V139.889ZM95.3229 136.333H98.8785V139.889H95.3229V136.333ZM91.7674 136.333H95.3229V139.889H91.7674V136.333ZM91.7674 139.889H95.3229V143.444H91.7674V139.889ZM91.7674 132.778H95.3229V136.333H91.7674V132.778ZM95.3229 129.222H98.8785V132.778H95.3229V129.222ZM95.3229 125.667H98.8785V129.222H95.3229V125.667ZM95.3229 122.111H98.8785V125.667H95.3229V122.111ZM95.3229 118.556H98.8785V122.111H95.3229V118.556ZM95.3229 115H98.8785V118.556H95.3229V115ZM95.3229 111.444H98.8785V115H95.3229V111.444ZM95.3229 107.889H98.8785V111.444H95.3229V107.889ZM91.7674 115H95.3229V118.556H91.7674V115ZM91.7674 118.556H95.3229V122.111H91.7674V118.556ZM91.7674 122.111H95.3229V125.667H91.7674V122.111ZM91.7674 125.667H95.3229V129.222H91.7674V125.667ZM91.7674 129.222H95.3229V132.778H91.7674V129.222ZM88.2118 132.778H91.7674V136.333H88.2118V132.778ZM88.2118 136.333H91.7674V139.889H88.2118V136.333ZM88.2118 129.222H91.7674V132.778H88.2118V129.222ZM88.2118 125.667H91.7674V129.222H88.2118V125.667ZM88.2118 122.111H91.7674V125.667H88.2118V122.111ZM88.2118 118.556H91.7674V122.111H88.2118V118.556ZM88.2118 115H91.7674V118.556H88.2118V115ZM98.8785 118.556H102.434V122.111H98.8785V118.556ZM137.979 107.889H141.535V111.444H137.979V107.889ZM141.535 107.889H145.09V111.444H141.535V107.889ZM145.09 107.889H148.646V111.444H145.09V107.889ZM148.646 107.889H152.201V111.444H148.646V107.889ZM152.201 107.889H155.757V111.444H152.201V107.889ZM155.757 107.889H159.313V111.444H155.757V107.889ZM159.313 111.444H162.868V115H159.313V111.444ZM155.757 111.444H159.313V115H155.757V111.444ZM152.201 111.444H155.757V115H152.201V111.444ZM148.646 111.444H152.201V115H148.646V111.444ZM145.09 111.444H148.646V115H145.09V111.444ZM141.535 111.444H145.09V115H141.535V111.444ZM137.979 111.444H141.535V115H137.979V111.444ZM134.424 111.444H137.979V115H134.424V111.444ZM134.424 115H137.979V118.556H134.424V115ZM137.979 115H141.535V118.556H137.979V115ZM130.868 115H134.424V118.556H130.868V115ZM130.868 118.556H134.424V122.111H130.868V118.556ZM130.868 122.111H134.424V125.667H130.868V122.111ZM134.424 122.111H137.979V125.667H134.424V122.111ZM137.979 122.111H141.535V125.667H137.979V122.111ZM137.979 118.556H141.535V122.111H137.979V118.556ZM134.424 118.556H137.979V122.111H134.424V118.556ZM134.424 125.667H137.979V129.222H134.424V125.667ZM134.424 129.222H137.979V132.778H134.424V129.222ZM134.424 132.778H137.979V136.333H134.424V132.778ZM130.868 132.778H134.424V136.333H130.868V132.778ZM130.868 136.333H134.424V139.889H130.868V136.333ZM130.868 129.222H134.424V132.778H130.868V129.222ZM130.868 125.667H134.424V129.222H130.868V125.667ZM137.979 125.667H141.535V129.222H137.979V125.667ZM137.979 129.222H141.535V132.778H137.979V129.222ZM137.979 132.778H141.535V136.333H137.979V132.778ZM137.979 136.333H141.535V139.889H137.979V136.333ZM134.424 136.333H137.979V139.889H134.424V136.333ZM134.424 139.889H137.979V143.444H134.424V139.889ZM137.979 139.889H141.535V143.444H137.979V139.889ZM141.535 139.889H145.09V143.444H141.535V139.889ZM141.535 136.333H145.09V139.889H141.535V136.333ZM137.979 143.444H141.535V147H137.979V143.444ZM141.535 143.444H145.09V147H141.535V143.444ZM145.09 143.444H148.646V147H145.09V143.444ZM148.646 143.444H152.201V147H148.646V143.444ZM152.201 143.444H155.757V147H152.201V143.444ZM155.757 143.444H159.313V147H155.757V143.444ZM152.201 139.889H155.757V143.444H152.201V139.889ZM148.646 139.889H152.201V143.444H148.646V139.889ZM145.09 139.889H148.646V143.444H145.09V139.889ZM155.757 139.889H159.313V143.444H155.757V139.889ZM159.313 139.889H162.868V143.444H159.313V139.889ZM155.757 136.333H159.313V139.889H155.757V136.333ZM152.201 136.333H155.757V139.889H152.201V136.333ZM159.313 136.333H162.868V139.889H159.313V136.333ZM162.868 136.333H166.424V139.889H162.868V136.333ZM162.868 132.778H166.424V136.333H162.868V132.778ZM159.313 129.222H162.868V132.778H159.313V129.222ZM159.313 132.778H162.868V136.333H159.313V132.778ZM155.757 132.778H159.313V136.333H155.757V132.778ZM162.868 129.222H166.424V132.778H162.868V129.222ZM162.868 125.667H166.424V129.222H162.868V125.667ZM159.313 125.667H162.868V129.222H159.313V125.667ZM159.313 122.111H162.868V125.667H159.313V122.111ZM159.313 118.556H162.868V122.111H159.313V118.556ZM162.868 118.556H166.424V122.111H162.868V118.556ZM162.868 115H166.424V118.556H162.868V115ZM162.868 122.111H166.424V125.667H162.868V122.111ZM155.757 125.667H159.313V129.222H155.757V125.667ZM155.757 129.222H159.313V132.778H155.757V129.222ZM155.757 122.111H159.313V125.667H155.757V122.111ZM155.757 118.556H159.313V122.111H155.757V118.556ZM155.757 115H159.313V118.556H155.757V115ZM152.201 115H155.757V118.556H152.201V115ZM159.313 115H162.868V118.556H159.313V115ZM141.535 115H145.09V118.556H141.535V115ZM145.09 115H148.646V118.556H145.09V115ZM148.646 115H152.201V118.556H148.646V115ZM145.09 136.333H148.646V139.889H145.09V136.333ZM148.646 136.333H152.201V139.889H148.646V136.333ZM173.524 107.889H177.08V111.444H173.524V107.889ZM177.08 107.889H180.635V111.444H177.08V107.889ZM180.635 107.889H184.191V111.444H180.635V107.889ZM180.635 111.444H184.191V115H180.635V111.444ZM180.635 115H184.191V118.556H180.635V115ZM180.635 118.556H184.191V122.111H180.635V118.556ZM180.635 122.111H184.191V125.667H180.635V122.111ZM180.635 125.667H184.191V129.222H180.635V125.667ZM177.08 125.667H180.635V129.222H177.08V125.667ZM177.08 122.111H180.635V125.667H177.08V122.111ZM177.08 118.556H180.635V122.111H177.08V118.556ZM173.524 115H177.08V118.556H173.524V115ZM173.524 111.444H177.08V115H173.524V111.444ZM177.08 115H180.635V118.556H177.08V115ZM177.08 111.444H180.635V115H177.08V111.444ZM173.524 118.556H177.08V122.111H173.524V118.556ZM173.524 122.111H177.08V125.667H173.524V122.111ZM173.524 125.667H177.08V129.222H173.524V125.667ZM173.524 129.222H177.08V132.778H173.524V129.222ZM177.08 129.222H180.635V132.778H177.08V129.222ZM180.635 129.222H184.191V132.778H180.635V129.222ZM180.635 132.778H184.191V136.333H180.635V132.778ZM180.635 136.333H184.191V139.889H180.635V136.333ZM177.08 136.333H180.635V139.889H177.08V136.333ZM177.08 132.778H180.635V136.333H177.08V132.778ZM173.524 132.778H177.08V136.333H173.524V132.778ZM173.524 136.333H177.08V139.889H173.524V136.333ZM177.08 139.889H180.635V143.444H177.08V139.889ZM180.635 139.889H184.191V143.444H180.635V139.889ZM184.191 139.889H187.747V143.444H184.191V139.889ZM184.191 136.333H187.747V139.889H184.191V136.333ZM180.635 143.444H184.191V147H180.635V143.444ZM184.191 143.444H187.747V147H184.191V143.444ZM187.747 143.444H191.302V147H187.747V143.444ZM187.747 139.889H191.302V143.444H187.747V139.889ZM187.747 136.333H191.302V139.889H187.747V136.333ZM191.302 139.889H194.858V143.444H191.302V139.889ZM191.302 143.444H194.858V147H191.302V143.444ZM205.524 107.889H209.08V111.444H205.524V107.889ZM205.524 111.444H209.08V115H205.524V111.444ZM205.524 115H209.08V118.556H205.524V115ZM205.524 118.556H209.08V122.111H205.524V118.556ZM205.524 122.111H209.08V125.667H205.524V122.111ZM205.524 125.667H209.08V129.222H205.524V125.667ZM205.524 129.222H209.08V132.778H205.524V129.222ZM205.524 132.778H209.08V136.333H205.524V132.778ZM205.524 136.333H209.08V139.889H205.524V136.333ZM201.969 136.333H205.524V139.889H201.969V136.333ZM198.413 136.333H201.969V139.889H198.413V136.333ZM198.413 139.889H201.969V143.444H198.413V139.889ZM194.858 139.889H198.413V143.444H194.858V139.889ZM201.969 139.889H205.524V143.444H201.969V139.889ZM205.524 139.889H209.08V143.444H205.524V139.889ZM194.858 136.333H198.413V139.889H194.858V136.333ZM191.302 136.333H194.858V139.889H191.302V136.333ZM194.858 132.778H198.413V136.333H194.858V132.778ZM198.413 132.778H201.969V136.333H198.413V132.778ZM201.969 132.778H205.524V136.333H201.969V132.778ZM201.969 129.222H205.524V132.778H201.969V129.222ZM201.969 125.667H205.524V129.222H201.969V125.667ZM201.969 122.111H205.524V125.667H201.969V122.111ZM201.969 118.556H205.524V122.111H201.969V118.556ZM201.969 115H205.524V118.556H201.969V115ZM201.969 111.444H205.524V115H201.969V111.444ZM201.969 107.889H205.524V111.444H201.969V107.889ZM198.413 111.444H201.969V115H198.413V111.444ZM198.413 115H201.969V118.556H198.413V115ZM198.413 118.556H201.969V122.111H198.413V118.556ZM198.413 122.111H201.969V125.667H198.413V122.111ZM198.413 125.667H201.969V129.222H198.413V125.667ZM198.413 129.222H201.969V132.778H198.413V129.222ZM198.413 107.889H201.969V111.444H198.413V107.889ZM205.524 143.444H209.08V147H205.524V143.444ZM201.969 143.444H205.524V147H201.969V143.444ZM198.413 143.444H201.969V147H198.413V143.444ZM230.403 97.2222H233.958V100.778H230.403V97.2222ZM230.403 100.778H233.958V104.333H230.403V100.778ZM226.847 100.778H230.403V104.333H226.847V100.778ZM230.403 104.333H233.958V107.889H230.403V104.333ZM226.847 104.333H230.403V107.889H226.847V104.333ZM223.292 104.333H226.847V107.889H223.292V104.333ZM223.292 107.889H226.847V111.444H223.292V107.889ZM226.847 107.889H230.403V111.444H226.847V107.889ZM230.403 107.889H233.958V111.444H230.403V107.889ZM230.403 111.444H233.958V115H230.403V111.444ZM226.847 111.444H230.403V115H226.847V111.444ZM223.292 111.444H226.847V115H223.292V111.444ZM219.736 111.444H223.292V115H219.736V111.444ZM216.181 111.444H219.736V115H216.181V111.444ZM216.181 115H219.736V118.556H216.181V115ZM219.736 115H223.292V118.556H219.736V115ZM223.292 115H226.847V118.556H223.292V115ZM226.847 115H230.403V118.556H226.847V115ZM230.403 115H233.958V118.556H230.403V115ZM233.958 115H237.514V118.556H233.958V115ZM237.514 115H241.069V118.556H237.514V115ZM241.069 115H244.625V118.556H241.069V115ZM241.069 111.444H244.625V115H241.069V111.444ZM237.514 111.444H241.069V115H237.514V111.444ZM233.958 111.444H237.514V115H233.958V111.444ZM223.292 118.556H226.847V122.111H223.292V118.556ZM226.847 118.556H230.403V122.111H226.847V118.556ZM230.403 118.556H233.958V122.111H230.403V118.556ZM230.403 122.111H233.958V125.667H230.403V122.111ZM230.403 125.667H233.958V129.222H230.403V125.667ZM230.403 129.222H233.958V132.778H230.403V129.222ZM230.403 132.778H233.958V136.333H230.403V132.778ZM226.847 132.778H230.403V136.333H226.847V132.778ZM226.847 129.222H230.403V132.778H226.847V129.222ZM226.847 125.667H230.403V129.222H226.847V125.667ZM226.847 122.111H230.403V125.667H226.847V122.111ZM223.292 122.111H226.847V125.667H223.292V122.111ZM223.292 125.667H226.847V129.222H223.292V125.667ZM223.292 129.222H226.847V132.778H223.292V129.222ZM223.292 132.778H226.847V136.333H223.292V132.778ZM223.292 136.333H226.847V139.889H223.292V136.333ZM226.847 136.333H230.403V139.889H226.847V136.333ZM230.403 136.333H233.958V139.889H230.403V136.333ZM233.958 136.333H237.514V139.889H233.958V136.333ZM233.958 139.889H237.514V143.444H233.958V139.889ZM230.403 139.889H233.958V143.444H230.403V139.889ZM226.847 139.889H230.403V143.444H226.847V139.889ZM237.514 139.889H241.069V143.444H237.514V139.889ZM241.069 139.889H244.625V143.444H241.069V139.889ZM241.069 143.444H244.625V147H241.069V143.444ZM237.514 143.444H241.069V147H237.514V143.444ZM233.958 143.444H237.514V147H233.958V143.444ZM230.403 143.444H233.958V147H230.403V143.444Z" fill="black"/>
</svg>
