<svg width="489" height="241" viewBox="0 0 489 241" fill="none" xmlns="http://www.w3.org/2000/svg">
<rect width="489" height="241" fill="#F5FD6D"/>
<path d="M54.6667 79.6667H58.2222V83.2222H54.6667V79.6667ZM58.2222 79.6667H61.7778V83.2222H58.2222V79.6667ZM61.7778 79.6667H65.3333V83.2222H61.7778V79.6667ZM65.3333 79.6667H68.8889V83.2222H65.3333V79.6667ZM68.8889 79.6667H72.4444V83.2222H68.8889V79.6667ZM72.4444 79.6667H76V83.2222H72.4444V79.6667ZM72.4444 83.2222H76V86.7778H72.4444V83.2222ZM76 83.2222H79.5556V86.7778H76V83.2222ZM68.8889 83.2222H72.4444V86.7778H68.8889V83.2222ZM65.3333 83.2222H68.8889V86.7778H65.3333V83.2222ZM61.7778 83.2222H65.3333V86.7778H61.7778V83.2222ZM58.2222 83.2222H61.7778V86.7778H58.2222V83.2222ZM54.6667 83.2222H58.2222V86.7778H54.6667V83.2222ZM51.1111 86.7778H54.6667V90.3333H51.1111V86.7778ZM51.1111 83.2222H54.6667V86.7778H51.1111V83.2222ZM47.5556 86.7778H51.1111V90.3333H47.5556V86.7778ZM54.6667 86.7778H58.2222V90.3333H54.6667V86.7778ZM58.2222 86.7778H61.7778V90.3333H58.2222V86.7778ZM61.7778 86.7778H65.3333V90.3333H61.7778V86.7778ZM65.3333 86.7778H68.8889V90.3333H65.3333V86.7778ZM68.8889 86.7778H72.4444V90.3333H68.8889V86.7778ZM72.4444 86.7778H76V90.3333H72.4444V86.7778ZM76 86.7778H79.5556V90.3333H76V86.7778ZM79.5556 86.7778H83.1111V90.3333H79.5556V86.7778ZM79.5556 90.3333H83.1111V93.8889H79.5556V90.3333ZM76 90.3333H79.5556V93.8889H76V90.3333ZM72.4444 90.3333H76V93.8889H72.4444V90.3333ZM68.8889 90.3333H72.4444V93.8889H68.8889V90.3333ZM72.4444 93.8889H76V97.4444H72.4444V93.8889ZM79.5556 93.8889H83.1111V97.4444H79.5556V93.8889ZM76 93.8889H79.5556V97.4444H76V93.8889ZM79.5556 115.222H83.1111V118.778H79.5556V115.222ZM79.5556 118.778H83.1111V122.333H79.5556V118.778ZM79.5556 122.333H83.1111V125.889H79.5556V122.333ZM76 122.333H79.5556V125.889H76V122.333ZM76 118.778H79.5556V122.333H76V118.778ZM76 115.222H79.5556V118.778H76V115.222ZM72.4444 115.222H76V118.778H72.4444V115.222ZM72.4444 118.778H76V122.333H72.4444V118.778ZM68.8889 118.778H72.4444V122.333H68.8889V118.778ZM72.4444 122.333H76V125.889H72.4444V122.333ZM76 125.889H79.5556V129.444H76V125.889ZM72.4444 125.889H76V129.444H72.4444V125.889ZM68.8889 122.333H72.4444V125.889H68.8889V122.333ZM68.8889 125.889H72.4444V129.444H68.8889V125.889ZM72.4444 129.444H76V133H72.4444V129.444ZM68.8889 129.444H72.4444V133H68.8889V129.444ZM65.3333 129.444H68.8889V133H65.3333V129.444ZM61.7778 129.444H65.3333V133H61.7778V129.444ZM58.2222 129.444H61.7778V133H58.2222V129.444ZM54.6667 129.444H58.2222V133H54.6667V129.444ZM54.6667 125.889H58.2222V129.444H54.6667V125.889ZM58.2222 125.889H61.7778V129.444H58.2222V125.889ZM58.2222 122.333H61.7778V125.889H58.2222V122.333ZM61.7778 122.333H65.3333V125.889H61.7778V122.333ZM65.3333 122.333H68.8889V125.889H65.3333V122.333ZM65.3333 125.889H68.8889V129.444H65.3333V125.889ZM61.7778 125.889H65.3333V129.444H61.7778V125.889ZM51.1111 125.889H54.6667V129.444H51.1111V125.889ZM54.6667 122.333H58.2222V125.889H54.6667V122.333ZM58.2222 118.778H61.7778V122.333H58.2222V118.778ZM54.6667 118.778H58.2222V122.333H54.6667V118.778ZM51.1111 118.778H54.6667V122.333H51.1111V118.778ZM51.1111 122.333H54.6667V125.889H51.1111V122.333ZM47.5556 122.333H51.1111V125.889H47.5556V122.333ZM47.5556 118.778H51.1111V122.333H47.5556V118.778ZM47.5556 115.222H51.1111V118.778H47.5556V115.222ZM47.5556 111.667H51.1111V115.222H47.5556V111.667ZM47.5556 108.111H51.1111V111.667H47.5556V108.111ZM47.5556 104.556H51.1111V108.111H47.5556V104.556ZM47.5556 101H51.1111V104.556H47.5556V101ZM47.5556 97.4444H51.1111V101H47.5556V97.4444ZM47.5556 93.8889H51.1111V97.4444H47.5556V93.8889ZM47.5556 90.3333H51.1111V93.8889H47.5556V90.3333ZM51.1111 90.3333H54.6667V93.8889H51.1111V90.3333ZM54.6667 90.3333H58.2222V93.8889H54.6667V90.3333ZM58.2222 90.3333H61.7778V93.8889H58.2222V90.3333ZM54.6667 93.8889H58.2222V97.4444H54.6667V93.8889ZM54.6667 97.4444H58.2222V101H54.6667V97.4444ZM54.6667 101H58.2222V104.556H54.6667V101ZM54.6667 104.556H58.2222V108.111H54.6667V104.556ZM54.6667 108.111H58.2222V111.667H54.6667V108.111ZM54.6667 111.667H58.2222V115.222H54.6667V111.667ZM54.6667 115.222H58.2222V118.778H54.6667V115.222ZM51.1111 115.222H54.6667V118.778H51.1111V115.222ZM51.1111 111.667H54.6667V115.222H51.1111V111.667ZM51.1111 108.111H54.6667V111.667H51.1111V108.111ZM51.1111 104.556H54.6667V108.111H51.1111V104.556ZM51.1111 101H54.6667V104.556H51.1111V101ZM51.1111 97.4444H54.6667V101H51.1111V97.4444ZM51.1111 93.8889H54.6667V97.4444H51.1111V93.8889ZM118.656 133H115.101V129.444H118.656V133ZM111.545 133H107.99V129.444H111.545V133ZM107.99 133H104.434V129.444H107.99V133ZM104.434 133H100.878V129.444H104.434V133ZM100.878 133H97.3229V129.444H100.878V133ZM97.3229 129.444H93.7674V125.889H97.3229V129.444ZM100.878 129.444H97.3229V125.889H100.878V129.444ZM104.434 129.444H100.878V125.889H104.434V129.444ZM107.99 129.444H104.434V125.889H107.99V129.444ZM111.545 129.444H107.99V125.889H111.545V129.444ZM115.101 129.444H111.545V125.889H115.101V129.444ZM118.656 129.444H115.101V125.889H118.656V129.444ZM122.212 129.444H118.656V125.889H122.212V129.444ZM122.212 125.889H118.656V122.333H122.212V125.889ZM118.656 125.889H115.101V122.333H118.656V125.889ZM125.767 125.889H122.212V122.333H125.767V125.889ZM125.767 122.333H122.212V118.778H125.767V122.333ZM125.767 118.778H122.212V115.222H125.767V118.778ZM122.212 118.778H118.656V115.222H122.212V118.778ZM118.656 118.778H115.101V115.222H118.656V118.778ZM118.656 122.333H115.101V118.778H118.656V122.333ZM122.212 122.333H118.656V118.778H122.212V122.333ZM122.212 115.222H118.656V111.667H122.212V115.222ZM122.212 111.667H118.656V108.111H122.212V111.667ZM122.212 108.111H118.656V104.556H122.212V108.111ZM125.767 108.111H122.212V104.556H125.767V108.111ZM125.767 104.556H122.212V101H125.767V104.556ZM125.767 111.667H122.212V108.111H125.767V111.667ZM125.767 115.222H122.212V111.667H125.767V115.222ZM118.656 115.222H115.101V111.667H118.656V115.222ZM118.656 111.667H115.101V108.111H118.656V111.667ZM118.656 108.111H115.101V104.556H118.656V108.111ZM118.656 104.556H115.101V101H118.656V104.556ZM122.212 104.556H118.656V101H122.212V104.556ZM122.212 101H118.656V97.4444H122.212V101ZM118.656 101H115.101V97.4444H118.656V101ZM115.101 101H111.545V97.4444H115.101V101ZM115.101 104.556H111.545V101H115.101V104.556ZM118.656 97.4444H115.101V93.8889H118.656V97.4444ZM115.101 97.4444H111.545V93.8889H115.101V97.4444ZM111.545 97.4444H107.99V93.8889H111.545V97.4444ZM107.99 97.4444H104.434V93.8889H107.99V97.4444ZM104.434 97.4444H100.878V93.8889H104.434V97.4444ZM100.878 97.4444H97.3229V93.8889H100.878V97.4444ZM104.434 101H100.878V97.4444H104.434V101ZM107.99 101H104.434V97.4444H107.99V101ZM111.545 101H107.99V97.4444H111.545V101ZM100.878 101H97.3229V97.4444H100.878V101ZM97.3229 101H93.7674V97.4444H97.3229V101ZM100.878 104.556H97.3229V101H100.878V104.556ZM104.434 104.556H100.878V101H104.434V104.556ZM97.3229 104.556H93.7674V101H97.3229V104.556ZM93.7674 104.556H90.2118V101H93.7674V104.556ZM97.3229 122.333H93.7674V118.778H97.3229V122.333ZM93.7674 122.333H90.2118V118.778H93.7674V122.333ZM93.7674 125.889H90.2118V122.333H93.7674V125.889ZM100.878 122.333H97.3229V118.778H100.878V122.333ZM100.878 125.889H97.3229V122.333H100.878V125.889ZM97.3229 125.889H93.7674V122.333H97.3229V125.889ZM111.545 104.556H107.99V101H111.545V104.556ZM107.99 104.556H104.434V101H107.99V104.556ZM97.3229 118.778H93.7674V115.222H97.3229V118.778ZM100.878 118.778H97.3229V115.222H100.878V118.778ZM111.545 115.222H107.99V111.667H111.545V115.222ZM107.99 115.222H104.434V111.667H107.99V115.222ZM104.434 115.222H100.878V111.667H104.434V115.222ZM100.878 115.222H97.3229V111.667H100.878V115.222ZM115.101 115.222H111.545V111.667H115.101V115.222ZM122.212 125.889H125.767V129.444H122.212V125.889ZM122.212 129.444H125.767V133H122.212V129.444ZM118.656 129.444H122.212V133H118.656V129.444ZM111.545 108.111H115.101V111.667H111.545V108.111ZM107.99 108.111H111.545V111.667H107.99V108.111ZM104.434 108.111H107.99V111.667H104.434V108.111ZM100.878 108.111H104.434V111.667H100.878V108.111ZM97.3229 108.111H100.878V111.667H97.3229V108.111ZM93.7674 111.667H97.3229V115.222H93.7674V111.667ZM90.2118 115.222H93.7674V118.778H90.2118V115.222ZM100.878 122.333H104.434V125.889H100.878V122.333ZM104.434 122.333H107.99V125.889H104.434V122.333ZM107.99 122.333H111.545V125.889H107.99V122.333ZM111.545 122.333H115.101V125.889H111.545V122.333ZM132.868 79.6667H136.424V83.2222H132.868V79.6667ZM132.868 83.2222H136.424V86.7778H132.868V83.2222ZM132.868 86.7778H136.424V90.3333H132.868V86.7778ZM132.868 90.3333H136.424V93.8889H132.868V90.3333ZM132.868 93.8889H136.424V97.4444H132.868V93.8889ZM132.868 97.4444H136.424V101H132.868V97.4444ZM132.868 101H136.424V104.556H132.868V101ZM132.868 104.556H136.424V108.111H132.868V104.556ZM132.868 108.111H136.424V111.667H132.868V108.111ZM132.868 111.667H136.424V115.222H132.868V111.667ZM132.868 115.222H136.424V118.778H132.868V115.222ZM132.868 118.778H136.424V122.333H132.868V118.778ZM132.868 122.333H136.424V125.889H132.868V122.333ZM132.868 125.889H136.424V129.444H132.868V125.889ZM132.868 129.444H136.424V133H132.868V129.444ZM136.424 129.444H139.979V133H136.424V129.444ZM139.979 129.444H143.535V133H139.979V129.444ZM139.979 125.889H143.535V129.444H139.979V125.889ZM139.979 122.333H143.535V125.889H139.979V122.333ZM139.979 118.778H143.535V122.333H139.979V118.778ZM139.979 115.222H143.535V118.778H139.979V115.222ZM139.979 111.667H143.535V115.222H139.979V111.667ZM139.979 108.111H143.535V111.667H139.979V108.111ZM139.979 104.556H143.535V108.111H139.979V104.556ZM139.979 101H143.535V104.556H139.979V101ZM139.979 79.6667H143.535V83.2222H139.979V79.6667ZM136.424 79.6667H139.979V83.2222H136.424V79.6667ZM136.424 83.2222H139.979V86.7778H136.424V83.2222ZM139.979 83.2222H143.535V86.7778H139.979V83.2222ZM139.979 86.7778H143.535V90.3333H139.979V86.7778ZM139.979 90.3333H143.535V93.8889H139.979V90.3333ZM139.979 93.8889H143.535V97.4444H139.979V93.8889ZM139.979 97.4444H143.535V101H139.979V97.4444ZM136.424 93.8889H139.979V97.4444H136.424V93.8889ZM136.424 90.3333H139.979V93.8889H136.424V90.3333ZM136.424 86.7778H139.979V90.3333H136.424V86.7778ZM136.424 97.4444H139.979V101H136.424V97.4444ZM136.424 101H139.979V104.556H136.424V101ZM136.424 125.889H139.979V129.444H136.424V125.889ZM136.424 122.333H139.979V125.889H136.424V122.333ZM136.424 118.778H139.979V122.333H136.424V118.778ZM136.424 115.222H139.979V118.778H136.424V115.222ZM136.424 111.667H139.979V115.222H136.424V111.667ZM136.424 108.111H139.979V111.667H136.424V108.111ZM136.424 104.556H139.979V108.111H136.424V104.556ZM157.792 93.8889H161.347V97.4444H157.792V93.8889ZM161.347 93.8889H164.903V97.4444H161.347V93.8889ZM164.903 93.8889H168.458V97.4444H164.903V93.8889ZM168.458 93.8889H172.014V97.4444H168.458V93.8889ZM172.014 93.8889H175.569V97.4444H172.014V93.8889ZM175.569 93.8889H179.125V97.4444H175.569V93.8889ZM179.125 97.4444H182.681V101H179.125V97.4444ZM175.569 97.4444H179.125V101H175.569V97.4444ZM172.014 97.4444H175.569V101H172.014V97.4444ZM168.458 97.4444H172.014V101H168.458V97.4444ZM164.903 97.4444H168.458V101H164.903V97.4444ZM161.347 97.4444H164.903V101H161.347V97.4444ZM157.792 97.4444H161.347V101H157.792V97.4444ZM154.236 97.4444H157.792V101H154.236V97.4444ZM154.236 101H157.792V104.556H154.236V101ZM157.792 101H161.347V104.556H157.792V101ZM150.681 101H154.236V104.556H150.681V101ZM150.681 104.556H154.236V108.111H150.681V104.556ZM150.681 108.111H154.236V111.667H150.681V108.111ZM154.236 108.111H157.792V111.667H154.236V108.111ZM157.792 108.111H161.347V111.667H157.792V108.111ZM157.792 104.556H161.347V108.111H157.792V104.556ZM154.236 104.556H157.792V108.111H154.236V104.556ZM154.236 111.667H157.792V115.222H154.236V111.667ZM154.236 115.222H157.792V118.778H154.236V115.222ZM154.236 118.778H157.792V122.333H154.236V118.778ZM150.681 118.778H154.236V122.333H150.681V118.778ZM150.681 122.333H154.236V125.889H150.681V122.333ZM150.681 115.222H154.236V118.778H150.681V115.222ZM150.681 111.667H154.236V115.222H150.681V111.667ZM157.792 111.667H161.347V115.222H157.792V111.667ZM157.792 115.222H161.347V118.778H157.792V115.222ZM157.792 118.778H161.347V122.333H157.792V118.778ZM157.792 122.333H161.347V125.889H157.792V122.333ZM154.236 122.333H157.792V125.889H154.236V122.333ZM154.236 125.889H157.792V129.444H154.236V125.889ZM157.792 125.889H161.347V129.444H157.792V125.889ZM161.347 125.889H164.903V129.444H161.347V125.889ZM161.347 122.333H164.903V125.889H161.347V122.333ZM157.792 129.444H161.347V133H157.792V129.444ZM161.347 129.444H164.903V133H161.347V129.444ZM164.903 129.444H168.458V133H164.903V129.444ZM168.458 129.444H172.014V133H168.458V129.444ZM172.014 129.444H175.569V133H172.014V129.444ZM175.569 129.444H179.125V133H175.569V129.444ZM172.014 125.889H175.569V129.444H172.014V125.889ZM168.458 125.889H172.014V129.444H168.458V125.889ZM164.903 125.889H168.458V129.444H164.903V125.889ZM175.569 125.889H179.125V129.444H175.569V125.889ZM179.125 125.889H182.681V129.444H179.125V125.889ZM175.569 122.333H179.125V125.889H175.569V122.333ZM172.014 122.333H175.569V125.889H172.014V122.333ZM179.125 122.333H182.681V125.889H179.125V122.333ZM182.681 122.333H186.236V125.889H182.681V122.333ZM179.125 104.556H182.681V108.111H179.125V104.556ZM182.681 104.556H186.236V108.111H182.681V104.556ZM182.681 101H186.236V104.556H182.681V101ZM175.569 104.556H179.125V108.111H175.569V104.556ZM175.569 101H179.125V104.556H175.569V101ZM179.125 101H182.681V104.556H179.125V101ZM164.903 122.333H168.458V125.889H164.903V122.333ZM168.458 122.333H172.014V125.889H168.458V122.333ZM182.681 108.111H186.236V111.667H182.681V108.111ZM179.125 108.111H182.681V111.667H179.125V108.111ZM175.569 108.111H179.125V111.667H175.569V108.111ZM164.903 111.667H168.458V115.222H164.903V111.667ZM168.458 111.667H172.014V115.222H168.458V111.667ZM172.014 111.667H175.569V115.222H172.014V111.667ZM175.569 111.667H179.125V115.222H175.569V111.667ZM179.125 111.667H182.681V115.222H179.125V111.667ZM182.681 111.667H186.236V115.222H182.681V111.667ZM161.347 111.667H164.903V115.222H161.347V111.667ZM161.347 101H164.903V104.556H161.347V101ZM164.903 101H168.458V104.556H164.903V101ZM168.458 101H172.014V104.556H168.458V101ZM172.014 101H175.569V104.556H172.014V101ZM182.681 115.222H186.236V118.778H182.681V115.222ZM179.125 115.222H182.681V118.778H179.125V115.222ZM172.014 115.222H175.569V118.778H172.014V115.222ZM168.458 115.222H172.014V118.778H168.458V115.222ZM164.903 115.222H168.458V118.778H164.903V115.222ZM161.347 115.222H164.903V118.778H161.347V115.222ZM175.569 115.222H179.125V118.778H175.569V115.222ZM200.448 93.8889H204.003V97.4444H200.448V93.8889ZM196.892 97.4444H200.448V101H196.892V97.4444ZM196.892 101H200.448V104.556H196.892V101ZM193.337 97.4444H196.892V101H193.337V97.4444ZM193.337 93.8889H196.892V97.4444H193.337V93.8889ZM196.892 93.8889H200.448V97.4444H196.892V93.8889ZM196.892 104.556H200.448V108.111H196.892V104.556ZM193.337 104.556H196.892V108.111H193.337V104.556ZM193.337 108.111H196.892V111.667H193.337V108.111ZM193.337 101H196.892V104.556H193.337V101ZM193.337 111.667H196.892V115.222H193.337V111.667ZM193.337 115.222H196.892V118.778H193.337V115.222ZM193.337 118.778H196.892V122.333H193.337V118.778ZM193.337 122.333H196.892V125.889H193.337V122.333ZM193.337 125.889H196.892V129.444H193.337V125.889ZM196.892 125.889H200.448V129.444H196.892V125.889ZM200.448 125.889H204.003V129.444H200.448V125.889ZM200.448 129.444H204.003V133H200.448V129.444ZM196.892 129.444H200.448V133H196.892V129.444ZM193.337 129.444H196.892V133H193.337V129.444ZM200.448 122.333H204.003V125.889H200.448V122.333ZM200.448 118.778H204.003V122.333H200.448V118.778ZM200.448 115.222H204.003V118.778H200.448V115.222ZM200.448 111.667H204.003V115.222H200.448V111.667ZM200.448 108.111H204.003V111.667H200.448V108.111ZM200.448 104.556H204.003V108.111H200.448V104.556ZM200.448 101H204.003V104.556H200.448V101ZM200.448 97.4444H204.003V101H200.448V97.4444ZM196.892 108.111H200.448V111.667H196.892V108.111ZM196.892 115.222H200.448V118.778H196.892V115.222ZM196.892 118.778H200.448V122.333H196.892V118.778ZM196.892 122.333H200.448V125.889H196.892V122.333ZM196.892 111.667H200.448V115.222H196.892V111.667ZM218.226 129.444H221.781V133H218.226V129.444ZM221.781 129.444H225.337V133H221.781V129.444ZM221.781 125.889H225.337V129.444H221.781V125.889ZM221.781 122.333H225.337V125.889H221.781V122.333ZM221.781 118.778H225.337V122.333H221.781V118.778ZM225.337 118.778H228.892V122.333H225.337V118.778ZM225.337 115.222H228.892V118.778H225.337V115.222ZM225.337 122.333H228.892V125.889H225.337V122.333ZM225.337 125.889H228.892V129.444H225.337V125.889ZM225.337 129.444H228.892V133H225.337V129.444ZM218.226 125.889H221.781V129.444H218.226V125.889ZM218.226 122.333H221.781V125.889H218.226V122.333ZM218.226 118.778H221.781V122.333H218.226V118.778ZM218.226 115.222H221.781V118.778H218.226V115.222ZM218.226 111.667H221.781V115.222H218.226V111.667ZM218.226 108.111H221.781V111.667H218.226V108.111ZM218.226 104.556H221.781V108.111H218.226V104.556ZM218.226 101H221.781V104.556H218.226V101ZM218.226 97.4444H221.781V101H218.226V97.4444ZM214.67 97.4444H218.226V101H214.67V97.4444ZM211.115 97.4444H214.67V101H211.115V97.4444ZM221.781 101H225.337V104.556H221.781V101ZM221.781 104.556H225.337V108.111H221.781V104.556ZM221.781 108.111H225.337V111.667H221.781V108.111ZM221.781 111.667H225.337V115.222H221.781V111.667ZM221.781 115.222H225.337V118.778H221.781V115.222ZM225.337 111.667H228.892V115.222H225.337V111.667ZM225.337 108.111H228.892V111.667H225.337V108.111ZM225.337 104.556H228.892V108.111H225.337V104.556ZM225.337 101H228.892V104.556H225.337V101ZM221.781 97.4444H225.337V101H221.781V97.4444ZM218.226 93.8889H221.781V97.4444H218.226V93.8889ZM214.67 93.8889H218.226V97.4444H214.67V93.8889ZM211.115 93.8889H214.67V97.4444H211.115V93.8889ZM207.559 93.8889H211.115V97.4444H207.559V93.8889ZM207.559 97.4444H211.115V101H207.559V97.4444ZM204.003 97.4444H207.559V101H204.003V97.4444ZM204.003 101H207.559V104.556H204.003V101ZM207.559 101H211.115V104.556H207.559V101ZM211.115 101H214.67V104.556H211.115V101ZM214.67 101H218.226V104.556H214.67V101ZM204.003 104.556H207.559V108.111H204.003V104.556ZM271.549 79.6667V83.2222H267.993V79.6667H271.549ZM271.549 83.2222V86.7778H267.993V83.2222H271.549ZM271.549 86.7778V90.3333H267.993V86.7778H271.549ZM271.549 90.3333V93.8889H267.993V90.3333H271.549ZM271.549 93.8889V97.4444H267.993V93.8889H271.549ZM271.549 97.4444V101H267.993V97.4444H271.549ZM271.549 125.889V129.444H267.993V125.889H271.549ZM271.549 129.444V133H267.993V129.444H271.549ZM267.993 129.444V133H264.438V129.444H267.993ZM264.438 79.6667V83.2222H260.882V79.6667H264.438ZM267.993 79.6667V83.2222H264.438V79.6667H267.993ZM267.993 83.2222V86.7778H264.438V83.2222H267.993ZM264.438 83.2222V86.7778H260.882V83.2222H264.438ZM264.438 86.7778V90.3333H260.882V86.7778H264.438ZM264.438 90.3333V93.8889H260.882V90.3333H264.438ZM267.993 93.8889V97.4444H264.438V93.8889H267.993ZM267.993 90.3333V93.8889H264.438V90.3333H267.993ZM267.993 86.7778V90.3333H264.438V86.7778H267.993ZM257.326 93.8889V97.4444H253.771V93.8889H257.326ZM253.771 93.8889V97.4444H250.215V93.8889H253.771ZM250.215 93.8889V97.4444H246.66V93.8889H250.215ZM246.66 93.8889V97.4444H243.104V93.8889H246.66ZM243.104 97.4444V101H239.549V97.4444H243.104ZM246.66 97.4444V101H243.104V97.4444H246.66ZM250.215 97.4444V101H246.66V97.4444H250.215ZM253.771 97.4444V101H250.215V97.4444H253.771ZM257.326 97.4444V101H253.771V97.4444H257.326ZM260.882 97.4444V101H257.326V97.4444H260.882ZM267.993 97.4444V101H264.438V97.4444H267.993ZM264.438 118.778V122.333H260.882V118.778H264.438ZM260.882 125.889V129.444H257.326V125.889H260.882ZM260.882 122.333V125.889H257.326V122.333H260.882ZM257.326 129.444V133H253.771V129.444H257.326ZM253.771 129.444V133H250.215V129.444H253.771ZM250.215 129.444V133H246.66V129.444H250.215ZM246.66 129.444V133H243.104V129.444H246.66ZM250.215 125.889V129.444H246.66V125.889H250.215ZM253.771 125.889V129.444H250.215V125.889H253.771ZM257.326 125.889V129.444H253.771V125.889H257.326ZM246.66 125.889V129.444H243.104V125.889H246.66ZM243.104 125.889V129.444H239.549V125.889H243.104ZM246.66 122.333V125.889H243.104V122.333H246.66ZM250.215 122.333V125.889H246.66V122.333H250.215ZM243.104 122.333V125.889H239.549V122.333H243.104ZM239.549 122.333V125.889H235.993V122.333H239.549ZM239.549 118.778V122.333H235.993V118.778H239.549ZM243.104 115.222V118.778H239.549V115.222H243.104ZM243.104 118.778V122.333H239.549V118.778H243.104ZM246.66 118.778V122.333H243.104V118.778H246.66ZM239.549 115.222V118.778H235.993V115.222H239.549ZM239.549 111.667V115.222H235.993V111.667H239.549ZM243.104 111.667V115.222H239.549V111.667H243.104ZM243.104 108.111V111.667H239.549V108.111H243.104ZM243.104 104.556V108.111H239.549V104.556H243.104ZM239.549 104.556V108.111H235.993V104.556H239.549ZM239.549 101V104.556H235.993V101H239.549ZM239.549 108.111V111.667H235.993V108.111H239.549ZM246.66 111.667V115.222H243.104V111.667H246.66ZM246.66 115.222V118.778H243.104V115.222H246.66ZM246.66 108.111V111.667H243.104V108.111H246.66ZM246.66 104.556V108.111H243.104V104.556H246.66ZM246.66 101V104.556H243.104V101H246.66ZM250.215 101V104.556H246.66V101H250.215ZM243.104 101V104.556H239.549V101H243.104ZM260.882 101V104.556H257.326V101H260.882ZM257.326 101V104.556H253.771V101H257.326ZM253.771 101V104.556H250.215V101H253.771ZM257.326 122.333V125.889H253.771V122.333H257.326ZM253.771 122.333V125.889H250.215V122.333H253.771ZM264.438 129.444V133H260.882V129.444H264.438ZM264.438 125.889V129.444H260.882V125.889H264.438ZM264.438 122.333V125.889H260.882V122.333H264.438ZM267.993 122.333V125.889H264.438V122.333H267.993ZM267.993 125.889V129.444H264.438V125.889H267.993ZM267.993 118.778V122.333H264.438V118.778H267.993ZM264.438 115.222V118.778H260.882V115.222H264.438ZM264.438 111.667V115.222H260.882V111.667H264.438ZM264.438 108.111V111.667H260.882V108.111H264.438ZM264.438 104.556V108.111H260.882V104.556H264.438ZM264.438 101V104.556H260.882V101H264.438ZM264.438 97.4444V101H260.882V97.4444H264.438ZM264.438 93.8889V97.4444H260.882V93.8889H264.438ZM267.993 101V104.556H264.438V101H267.993ZM267.993 104.556V108.111H264.438V104.556H267.993ZM267.993 108.111V111.667H264.438V108.111H267.993ZM267.993 111.667V115.222H264.438V111.667H267.993ZM267.993 115.222V118.778H264.438V115.222H267.993ZM271.549 118.778V122.333H267.993V118.778H271.549ZM271.549 122.333V125.889H267.993V122.333H271.549ZM271.549 115.222V118.778H267.993V115.222H271.549ZM271.549 111.667V115.222H267.993V111.667H271.549ZM271.549 108.111V111.667H267.993V108.111H271.549ZM271.549 104.556V108.111H267.993V104.556H271.549ZM271.549 101V104.556H267.993V101H271.549ZM257.326 118.778H260.882V122.333H257.326V118.778ZM257.326 93.8889H260.882V97.4444H257.326V93.8889ZM307.094 133H303.538V129.444H307.094V133ZM299.983 133H296.427V129.444H299.983V133ZM296.427 133H292.872V129.444H296.427V133ZM292.872 133H289.316V129.444H292.872V133ZM289.316 133H285.76V129.444H289.316V133ZM285.76 129.444H282.205V125.889H285.76V129.444ZM289.316 129.444H285.76V125.889H289.316V129.444ZM292.872 129.444H289.316V125.889H292.872V129.444ZM296.427 129.444H292.872V125.889H296.427V129.444ZM299.983 129.444H296.427V125.889H299.983V129.444ZM303.538 129.444H299.983V125.889H303.538V129.444ZM307.094 129.444H303.538V125.889H307.094V129.444ZM310.649 129.444H307.094V125.889H310.649V129.444ZM310.649 125.889H307.094V122.333H310.649V125.889ZM307.094 125.889H303.538V122.333H307.094V125.889ZM314.205 125.889H310.649V122.333H314.205V125.889ZM314.205 122.333H310.649V118.778H314.205V122.333ZM314.205 118.778H310.649V115.222H314.205V118.778ZM310.649 118.778H307.094V115.222H310.649V118.778ZM307.094 118.778H303.538V115.222H307.094V118.778ZM307.094 122.333H303.538V118.778H307.094V122.333ZM310.649 122.333H307.094V118.778H310.649V122.333ZM310.649 115.222H307.094V111.667H310.649V115.222ZM310.649 111.667H307.094V108.111H310.649V111.667ZM310.649 108.111H307.094V104.556H310.649V108.111ZM314.205 108.111H310.649V104.556H314.205V108.111ZM314.205 104.556H310.649V101H314.205V104.556ZM314.205 111.667H310.649V108.111H314.205V111.667ZM314.205 115.222H310.649V111.667H314.205V115.222ZM307.094 115.222H303.538V111.667H307.094V115.222ZM307.094 111.667H303.538V108.111H307.094V111.667ZM307.094 108.111H303.538V104.556H307.094V108.111ZM307.094 104.556H303.538V101H307.094V104.556ZM310.649 104.556H307.094V101H310.649V104.556ZM310.649 101H307.094V97.4444H310.649V101ZM307.094 101H303.538V97.4444H307.094V101ZM303.538 101H299.983V97.4444H303.538V101ZM303.538 104.556H299.983V101H303.538V104.556ZM307.094 97.4444H303.538V93.8889H307.094V97.4444ZM303.538 97.4444H299.983V93.8889H303.538V97.4444ZM299.983 97.4444H296.427V93.8889H299.983V97.4444ZM296.427 97.4444H292.872V93.8889H296.427V97.4444ZM292.872 97.4444H289.316V93.8889H292.872V97.4444ZM289.316 97.4444H285.76V93.8889H289.316V97.4444ZM292.872 101H289.316V97.4444H292.872V101ZM296.427 101H292.872V97.4444H296.427V101ZM299.983 101H296.427V97.4444H299.983V101ZM289.316 101H285.76V97.4444H289.316V101ZM285.76 101H282.205V97.4444H285.76V101ZM289.316 104.556H285.76V101H289.316V104.556ZM292.872 104.556H289.316V101H292.872V104.556ZM285.76 104.556H282.205V101H285.76V104.556ZM282.205 104.556H278.649V101H282.205V104.556ZM285.76 122.333H282.205V118.778H285.76V122.333ZM282.205 122.333H278.649V118.778H282.205V122.333ZM282.205 125.889H278.649V122.333H282.205V125.889ZM289.316 122.333H285.76V118.778H289.316V122.333ZM289.316 125.889H285.76V122.333H289.316V125.889ZM285.76 125.889H282.205V122.333H285.76V125.889ZM299.983 104.556H296.427V101H299.983V104.556ZM296.427 104.556H292.872V101H296.427V104.556ZM285.76 118.778H282.205V115.222H285.76V118.778ZM289.316 118.778H285.76V115.222H289.316V118.778ZM299.983 115.222H296.427V111.667H299.983V115.222ZM296.427 115.222H292.872V111.667H296.427V115.222ZM292.872 115.222H289.316V111.667H292.872V115.222ZM289.316 115.222H285.76V111.667H289.316V115.222ZM303.538 115.222H299.983V111.667H303.538V115.222ZM310.649 125.889H314.205V129.444H310.649V125.889ZM310.649 129.444H314.205V133H310.649V129.444ZM307.094 129.444H310.649V133H307.094V129.444ZM299.983 108.111H303.538V111.667H299.983V108.111ZM296.427 108.111H299.983V111.667H296.427V108.111ZM292.872 108.111H296.427V111.667H292.872V108.111ZM289.316 108.111H292.872V111.667H289.316V108.111ZM285.76 108.111H289.316V111.667H285.76V108.111ZM282.205 111.667H285.76V115.222H282.205V111.667ZM278.649 115.222H282.205V118.778H278.649V115.222ZM289.316 122.333H292.872V125.889H289.316V122.333ZM292.872 122.333H296.427V125.889H292.872V122.333ZM296.427 122.333H299.983V125.889H296.427V122.333ZM299.983 122.333H303.538V125.889H299.983V122.333ZM328.417 93.8889H331.972V97.4444H328.417V93.8889ZM324.861 97.4444H328.417V101H324.861V97.4444ZM324.861 101H328.417V104.556H324.861V101ZM321.306 97.4444H324.861V101H321.306V97.4444ZM321.306 93.8889H324.861V97.4444H321.306V93.8889ZM324.861 93.8889H328.417V97.4444H324.861V93.8889ZM324.861 104.556H328.417V108.111H324.861V104.556ZM321.306 104.556H324.861V108.111H321.306V104.556ZM321.306 108.111H324.861V111.667H321.306V108.111ZM321.306 101H324.861V104.556H321.306V101ZM321.306 111.667H324.861V115.222H321.306V111.667ZM321.306 115.222H324.861V118.778H321.306V115.222ZM321.306 118.778H324.861V122.333H321.306V118.778ZM321.306 122.333H324.861V125.889H321.306V122.333ZM321.306 125.889H324.861V129.444H321.306V125.889ZM324.861 125.889H328.417V129.444H324.861V125.889ZM328.417 125.889H331.972V129.444H328.417V125.889ZM328.417 129.444H331.972V133H328.417V129.444ZM324.861 129.444H328.417V133H324.861V129.444ZM321.306 129.444H324.861V133H321.306V129.444ZM328.417 122.333H331.972V125.889H328.417V122.333ZM328.417 118.778H331.972V122.333H328.417V118.778ZM328.417 115.222H331.972V118.778H328.417V115.222ZM328.417 111.667H331.972V115.222H328.417V111.667ZM328.417 108.111H331.972V111.667H328.417V108.111ZM328.417 104.556H331.972V108.111H328.417V104.556ZM328.417 101H331.972V104.556H328.417V101ZM328.417 97.4444H331.972V101H328.417V97.4444ZM324.861 108.111H328.417V111.667H324.861V108.111ZM324.861 115.222H328.417V118.778H324.861V115.222ZM324.861 118.778H328.417V122.333H324.861V118.778ZM324.861 122.333H328.417V125.889H324.861V122.333ZM324.861 111.667H328.417V115.222H324.861V111.667ZM346.194 101H349.75V104.556H346.194V101ZM346.194 97.4444H349.75V101H346.194V97.4444ZM342.639 97.4444H346.194V101H342.639V97.4444ZM339.083 97.4444H342.639V101H339.083V97.4444ZM349.75 97.4444H353.306V101H349.75V97.4444ZM346.194 93.8889H349.75V97.4444H346.194V93.8889ZM342.639 93.8889H346.194V97.4444H342.639V93.8889ZM339.083 93.8889H342.639V97.4444H339.083V93.8889ZM335.528 93.8889H339.083V97.4444H335.528V93.8889ZM335.528 97.4444H339.083V101H335.528V97.4444ZM331.972 97.4444H335.528V101H331.972V97.4444ZM331.972 101H335.528V104.556H331.972V101ZM342.639 101H346.194V104.556H342.639V101ZM342.639 104.556H346.194V108.111H342.639V104.556ZM339.083 101H342.639V104.556H339.083V101ZM335.528 101H339.083V104.556H335.528V101ZM331.972 104.556H335.528V108.111H331.972V104.556Z" fill="black"/>
</svg>
