<svg width="489" height="239" viewBox="0 0 489 239" fill="none" xmlns="http://www.w3.org/2000/svg">
<rect width="489" height="239" fill="#A392EF"/>
<path d="M51.1111 108.667H54.6667V112.222H51.1111V108.667ZM51.1111 112.222H54.6667V115.778H51.1111V112.222ZM51.1111 115.778H54.6667V119.333H51.1111V115.778ZM51.1111 119.333H54.6667V122.889H51.1111V119.333ZM51.1111 122.889H54.6667V126.444H51.1111V122.889ZM51.1111 126.444H54.6667V130H51.1111V126.444ZM51.1111 130H54.6667V133.556H51.1111V130ZM51.1111 133.556H54.6667V137.111H51.1111V133.556ZM51.1111 137.111H54.6667V140.667H51.1111V137.111ZM51.1111 140.667H54.6667V144.222H51.1111V140.667ZM51.1111 144.222H54.6667V147.778H51.1111V144.222ZM51.1111 147.778H54.6667V151.333H51.1111V147.778ZM51.1111 151.333H54.6667V154.889H51.1111V151.333ZM51.1111 154.889H54.6667V158.444H51.1111V154.889ZM51.1111 158.444H54.6667V162H51.1111V158.444ZM47.5556 158.444H51.1111V162H47.5556V158.444ZM47.5556 154.889H51.1111V158.444H47.5556V154.889ZM47.5556 151.333H51.1111V154.889H47.5556V151.333ZM47.5556 112.222H51.1111V115.778H47.5556V112.222ZM47.5556 108.667H51.1111V112.222H47.5556V108.667ZM47.5556 115.778H51.1111V119.333H47.5556V115.778ZM47.5556 119.333H51.1111V122.889H47.5556V119.333ZM47.5556 122.889H51.1111V126.444H47.5556V122.889ZM47.5556 126.444H51.1111V130H47.5556V126.444ZM47.5556 130H51.1111V133.556H47.5556V130ZM47.5556 133.556H51.1111V137.111H47.5556V133.556ZM47.5556 137.111H51.1111V140.667H47.5556V137.111ZM47.5556 140.667H51.1111V144.222H47.5556V140.667ZM47.5556 144.222H51.1111V147.778H47.5556V144.222ZM47.5556 147.778H51.1111V151.333H47.5556V147.778ZM54.6667 158.444H58.2222V162H54.6667V158.444ZM54.6667 154.889H58.2222V158.444H54.6667V154.889ZM54.6667 151.333H58.2222V154.889H54.6667V151.333ZM54.6667 147.778H58.2222V151.333H54.6667V147.778ZM54.6667 140.667H58.2222V144.222H54.6667V140.667ZM54.6667 137.111H58.2222V140.667H54.6667V137.111ZM54.6667 133.556H58.2222V137.111H54.6667V133.556ZM54.6667 130H58.2222V133.556H54.6667V130ZM54.6667 126.444H58.2222V130H54.6667V126.444ZM54.6667 122.889H58.2222V126.444H54.6667V122.889ZM54.6667 108.667H58.2222V112.222H54.6667V108.667ZM54.6667 112.222H58.2222V115.778H54.6667V112.222ZM54.6667 115.778H58.2222V119.333H54.6667V115.778ZM54.6667 119.333H58.2222V122.889H54.6667V119.333ZM54.6667 144.222H58.2222V147.778H54.6667V144.222ZM58.2222 158.444H61.7778V162H58.2222V158.444ZM61.7778 158.444H65.3333V162H61.7778V158.444ZM65.3333 158.444H68.8889V162H65.3333V158.444ZM65.3333 154.889H68.8889V158.444H65.3333V154.889ZM65.3333 151.333H68.8889V154.889H65.3333V151.333ZM61.7778 151.333H65.3333V154.889H61.7778V151.333ZM61.7778 154.889H65.3333V158.444H61.7778V154.889ZM58.2222 154.889H61.7778V158.444H58.2222V154.889ZM58.2222 151.333H61.7778V154.889H58.2222V151.333ZM68.8889 151.333H72.4444V154.889H68.8889V151.333ZM68.8889 154.889H72.4444V158.444H68.8889V154.889ZM68.8889 158.444H72.4444V162H68.8889V158.444ZM72.4444 158.444H76V162H72.4444V158.444ZM72.4444 154.889H76V158.444H72.4444V154.889ZM72.4444 151.333H76V154.889H72.4444V151.333ZM76 151.333H79.5556V154.889H76V151.333ZM76 154.889H79.5556V158.444H76V154.889ZM76 158.444H79.5556V162H76V158.444ZM58.2222 108.667H61.7778V112.222H58.2222V108.667ZM61.7778 108.667H65.3333V112.222H61.7778V108.667ZM65.3333 108.667H68.8889V112.222H65.3333V108.667ZM68.8889 108.667H72.4444V112.222H68.8889V108.667ZM72.4444 108.667H76V112.222H72.4444V108.667ZM76 108.667H79.5556V112.222H76V108.667ZM76 112.222H79.5556V115.778H76V112.222ZM76 115.778H79.5556V119.333H76V115.778ZM72.4444 115.778H76V119.333H72.4444V115.778ZM68.8889 115.778H72.4444V119.333H68.8889V115.778ZM65.3333 115.778H68.8889V119.333H65.3333V115.778ZM61.7778 115.778H65.3333V119.333H61.7778V115.778ZM61.7778 112.222H65.3333V115.778H61.7778V112.222ZM58.2222 112.222H61.7778V115.778H58.2222V112.222ZM58.2222 115.778H61.7778V119.333H58.2222V115.778ZM65.3333 112.222H68.8889V115.778H65.3333V112.222ZM68.8889 112.222H72.4444V115.778H68.8889V112.222ZM72.4444 112.222H76V115.778H72.4444V112.222ZM58.2222 130H61.7778V133.556H58.2222V130ZM58.2222 133.556H61.7778V137.111H58.2222V133.556ZM58.2222 137.111H61.7778V140.667H58.2222V137.111ZM61.7778 137.111H65.3333V140.667H61.7778V137.111ZM61.7778 133.556H65.3333V137.111H61.7778V133.556ZM61.7778 130H65.3333V133.556H61.7778V130ZM65.3333 130H68.8889V133.556H65.3333V130ZM65.3333 133.556H68.8889V137.111H65.3333V133.556ZM68.8889 133.556H72.4444V137.111H68.8889V133.556ZM68.8889 130H72.4444V133.556H68.8889V130ZM68.8889 137.111H72.4444V140.667H68.8889V137.111ZM65.3333 137.111H68.8889V140.667H65.3333V137.111ZM72.4444 130H76V133.556H72.4444V130ZM72.4444 133.556H76V137.111H72.4444V133.556ZM72.4444 137.111H76V140.667H72.4444V137.111ZM93.7604 108.667H97.316V112.222H93.7604V108.667ZM97.316 108.667H100.872V112.222H97.316V108.667ZM100.872 108.667H104.427V112.222H100.872V108.667ZM104.427 108.667H107.983V112.222H104.427V108.667ZM107.983 108.667H111.538V112.222H107.983V108.667ZM111.538 108.667H115.094V112.222H111.538V108.667ZM111.538 112.222H115.094V115.778H111.538V112.222ZM115.094 112.222H118.649V115.778H115.094V112.222ZM107.983 112.222H111.538V115.778H107.983V112.222ZM104.427 112.222H107.983V115.778H104.427V112.222ZM100.872 112.222H104.427V115.778H100.872V112.222ZM97.316 112.222H100.872V115.778H97.316V112.222ZM93.7604 112.222H97.316V115.778H93.7604V112.222ZM90.2049 115.778H93.7604V119.333H90.2049V115.778ZM90.2049 112.222H93.7604V115.778H90.2049V112.222ZM86.6493 115.778H90.2049V119.333H86.6493V115.778ZM93.7604 115.778H97.316V119.333H93.7604V115.778ZM97.316 115.778H100.872V119.333H97.316V115.778ZM100.872 115.778H104.427V119.333H100.872V115.778ZM104.427 115.778H107.983V119.333H104.427V115.778ZM107.983 115.778H111.538V119.333H107.983V115.778ZM111.538 115.778H115.094V119.333H111.538V115.778ZM115.094 115.778H118.649V119.333H115.094V115.778ZM118.649 115.778H122.205V119.333H118.649V115.778ZM118.649 119.333H122.205V122.889H118.649V119.333ZM115.094 119.333H118.649V122.889H115.094V119.333ZM111.538 119.333H115.094V122.889H111.538V119.333ZM107.983 119.333H111.538V122.889H107.983V119.333ZM111.538 122.889H115.094V126.444H111.538V122.889ZM111.538 126.444H115.094V130H111.538V126.444ZM111.538 130H115.094V133.556H111.538V130ZM111.538 133.556H115.094V137.111H111.538V133.556ZM111.538 137.111H115.094V140.667H111.538V137.111ZM115.094 133.556H118.649V137.111H115.094V133.556ZM118.649 133.556H122.205V137.111H118.649V133.556ZM118.649 130H122.205V133.556H118.649V130ZM118.649 126.444H122.205V130H118.649V126.444ZM118.649 122.889H122.205V126.444H118.649V122.889ZM115.094 122.889H118.649V126.444H115.094V122.889ZM115.094 126.444H118.649V130H115.094V126.444ZM115.094 130H118.649V133.556H115.094V130ZM115.094 137.111H118.649V140.667H115.094V137.111ZM115.094 140.667H118.649V144.222H115.094V140.667ZM118.649 140.667H122.205V144.222H118.649V140.667ZM118.649 137.111H122.205V140.667H118.649V137.111ZM118.649 144.222H122.205V147.778H118.649V144.222ZM118.649 147.778H122.205V151.333H118.649V147.778ZM118.649 151.333H122.205V154.889H118.649V151.333ZM115.094 151.333H118.649V154.889H115.094V151.333ZM115.094 147.778H118.649V151.333H115.094V147.778ZM115.094 144.222H118.649V147.778H115.094V144.222ZM111.538 140.667H115.094V144.222H111.538V140.667ZM111.538 144.222H115.094V147.778H111.538V144.222ZM111.538 147.778H115.094V151.333H111.538V147.778ZM107.983 147.778H111.538V151.333H107.983V147.778ZM111.538 151.333H115.094V154.889H111.538V151.333ZM115.094 154.889H118.649V158.444H115.094V154.889ZM111.538 154.889H115.094V158.444H111.538V154.889ZM107.983 151.333H111.538V154.889H107.983V151.333ZM107.983 154.889H111.538V158.444H107.983V154.889ZM111.538 158.444H115.094V162H111.538V158.444ZM107.983 158.444H111.538V162H107.983V158.444ZM104.427 158.444H107.983V162H104.427V158.444ZM100.872 158.444H104.427V162H100.872V158.444ZM97.316 158.444H100.872V162H97.316V158.444ZM93.7604 158.444H97.316V162H93.7604V158.444ZM93.7604 154.889H97.316V158.444H93.7604V154.889ZM97.316 154.889H100.872V158.444H97.316V154.889ZM97.316 151.333H100.872V154.889H97.316V151.333ZM100.872 151.333H104.427V154.889H100.872V151.333ZM104.427 151.333H107.983V154.889H104.427V151.333ZM104.427 154.889H107.983V158.444H104.427V154.889ZM100.872 154.889H104.427V158.444H100.872V154.889ZM90.2049 154.889H93.7604V158.444H90.2049V154.889ZM93.7604 151.333H97.316V154.889H93.7604V151.333ZM93.7604 147.778H97.316V151.333H93.7604V147.778ZM90.2049 147.778H93.7604V151.333H90.2049V147.778ZM90.2049 151.333H93.7604V154.889H90.2049V151.333ZM86.6493 151.333H90.2049V154.889H86.6493V151.333ZM86.6493 147.778H90.2049V151.333H86.6493V147.778ZM86.6493 144.222H90.2049V147.778H86.6493V144.222ZM86.6493 140.667H90.2049V144.222H86.6493V140.667ZM86.6493 137.111H90.2049V140.667H86.6493V137.111ZM86.6493 133.556H90.2049V137.111H86.6493V133.556ZM86.6493 130H90.2049V133.556H86.6493V130ZM86.6493 126.444H90.2049V130H86.6493V126.444ZM86.6493 122.889H90.2049V126.444H86.6493V122.889ZM86.6493 119.333H90.2049V122.889H86.6493V119.333ZM90.2049 119.333H93.7604V122.889H90.2049V119.333ZM93.7604 119.333H97.316V122.889H93.7604V119.333ZM93.7604 122.889H97.316V126.444H93.7604V122.889ZM93.7604 126.444H97.316V130H93.7604V126.444ZM93.7604 130H97.316V133.556H93.7604V130ZM93.7604 133.556H97.316V137.111H93.7604V133.556ZM93.7604 137.111H97.316V140.667H93.7604V137.111ZM93.7604 140.667H97.316V144.222H93.7604V140.667ZM93.7604 144.222H97.316V147.778H93.7604V144.222ZM90.2049 144.222H93.7604V147.778H90.2049V144.222ZM90.2049 140.667H93.7604V144.222H90.2049V140.667ZM90.2049 137.111H93.7604V140.667H90.2049V137.111ZM90.2049 133.556H93.7604V137.111H90.2049V133.556ZM90.2049 130H93.7604V133.556H90.2049V130ZM90.2049 126.444H93.7604V130H90.2049V126.444ZM90.2049 122.889H93.7604V126.444H90.2049V122.889ZM86.6493 154.889H90.2049V158.444H86.6493V154.889ZM86.6493 158.444H90.2049V162H86.6493V158.444ZM90.2049 158.444H93.7604V162H90.2049V158.444ZM90.2049 108.667H93.7604V112.222H90.2049V108.667ZM86.6493 108.667H90.2049V112.222H86.6493V108.667ZM86.6493 112.222H90.2049V115.778H86.6493V112.222ZM136.417 108.667H139.972V112.222H136.417V108.667ZM154.194 108.667H157.75V112.222H154.194V108.667ZM154.194 112.222H157.75V115.778H154.194V112.222ZM157.75 112.222H161.306V115.778H157.75V112.222ZM136.417 112.222H139.972V115.778H136.417V112.222ZM132.861 115.778H136.417V119.333H132.861V115.778ZM132.861 112.222H136.417V115.778H132.861V112.222ZM129.306 115.778H132.861V119.333H129.306V115.778ZM136.417 115.778H139.972V119.333H136.417V115.778ZM154.194 115.778H157.75V119.333H154.194V115.778ZM157.75 115.778H161.306V119.333H157.75V115.778ZM161.306 115.778H164.861V119.333H161.306V115.778ZM161.306 119.333H164.861V122.889H161.306V119.333ZM157.75 119.333H161.306V122.889H157.75V119.333ZM154.194 119.333H157.75V122.889H154.194V119.333ZM154.194 122.889H157.75V126.444H154.194V122.889ZM154.194 126.444H157.75V130H154.194V126.444ZM154.194 130H157.75V133.556H154.194V130ZM154.194 133.556H157.75V137.111H154.194V133.556ZM154.194 137.111H157.75V140.667H154.194V137.111ZM157.75 133.556H161.306V137.111H157.75V133.556ZM161.306 133.556H164.861V137.111H161.306V133.556ZM161.306 130H164.861V133.556H161.306V130ZM161.306 126.444H164.861V130H161.306V126.444ZM161.306 122.889H164.861V126.444H161.306V122.889ZM157.75 122.889H161.306V126.444H157.75V122.889ZM157.75 126.444H161.306V130H157.75V126.444ZM157.75 130H161.306V133.556H157.75V130ZM157.75 137.111H161.306V140.667H157.75V137.111ZM157.75 140.667H161.306V144.222H157.75V140.667ZM161.306 140.667H164.861V144.222H161.306V140.667ZM161.306 137.111H164.861V140.667H161.306V137.111ZM161.306 144.222H164.861V147.778H161.306V144.222ZM161.306 147.778H164.861V151.333H161.306V147.778ZM161.306 151.333H164.861V154.889H161.306V151.333ZM157.75 151.333H161.306V154.889H157.75V151.333ZM157.75 147.778H161.306V151.333H157.75V147.778ZM157.75 144.222H161.306V147.778H157.75V144.222ZM154.194 140.667H157.75V144.222H154.194V140.667ZM154.194 144.222H157.75V147.778H154.194V144.222ZM154.194 147.778H157.75V151.333H154.194V147.778ZM150.639 147.778H154.194V151.333H150.639V147.778ZM154.194 151.333H157.75V154.889H154.194V151.333ZM157.75 154.889H161.306V158.444H157.75V154.889ZM154.194 154.889H157.75V158.444H154.194V154.889ZM150.639 151.333H154.194V154.889H150.639V151.333ZM150.639 154.889H154.194V158.444H150.639V154.889ZM154.194 158.444H157.75V162H154.194V158.444ZM150.639 158.444H154.194V162H150.639V158.444ZM147.083 158.444H150.639V162H147.083V158.444ZM143.528 158.444H147.083V162H143.528V158.444ZM139.972 158.444H143.528V162H139.972V158.444ZM136.417 158.444H139.972V162H136.417V158.444ZM136.417 154.889H139.972V158.444H136.417V154.889ZM139.972 154.889H143.528V158.444H139.972V154.889ZM139.972 151.333H143.528V154.889H139.972V151.333ZM143.528 151.333H147.083V154.889H143.528V151.333ZM147.083 151.333H150.639V154.889H147.083V151.333ZM147.083 154.889H150.639V158.444H147.083V154.889ZM143.528 154.889H147.083V158.444H143.528V154.889ZM132.861 154.889H136.417V158.444H132.861V154.889ZM136.417 151.333H139.972V154.889H136.417V151.333ZM139.972 147.778H143.528V151.333H139.972V147.778ZM136.417 147.778H139.972V151.333H136.417V147.778ZM132.861 147.778H136.417V151.333H132.861V147.778ZM132.861 151.333H136.417V154.889H132.861V151.333ZM129.306 151.333H132.861V154.889H129.306V151.333ZM129.306 147.778H132.861V151.333H129.306V147.778ZM129.306 144.222H132.861V147.778H129.306V144.222ZM129.306 140.667H132.861V144.222H129.306V140.667ZM129.306 137.111H132.861V140.667H129.306V137.111ZM129.306 133.556H132.861V137.111H129.306V133.556ZM129.306 130H132.861V133.556H129.306V130ZM129.306 126.444H132.861V130H129.306V126.444ZM129.306 122.889H132.861V126.444H129.306V122.889ZM129.306 119.333H132.861V122.889H129.306V119.333ZM132.861 119.333H136.417V122.889H132.861V119.333ZM136.417 119.333H139.972V122.889H136.417V119.333ZM136.417 122.889H139.972V126.444H136.417V122.889ZM136.417 126.444H139.972V130H136.417V126.444ZM136.417 130H139.972V133.556H136.417V130ZM136.417 133.556H139.972V137.111H136.417V133.556ZM136.417 137.111H139.972V140.667H136.417V137.111ZM136.417 140.667H139.972V144.222H136.417V140.667ZM136.417 144.222H139.972V147.778H136.417V144.222ZM132.861 144.222H136.417V147.778H132.861V144.222ZM132.861 140.667H136.417V144.222H132.861V140.667ZM132.861 137.111H136.417V140.667H132.861V137.111ZM132.861 133.556H136.417V137.111H132.861V133.556ZM132.861 130H136.417V133.556H132.861V130ZM132.861 126.444H136.417V130H132.861V126.444ZM132.861 122.889H136.417V126.444H132.861V122.889ZM132.861 108.667H136.417V112.222H132.861V108.667ZM129.306 108.667H132.861V112.222H129.306V108.667ZM129.306 112.222H132.861V115.778H129.306V112.222ZM157.75 108.667H161.306V112.222H157.75V108.667ZM161.306 108.667H164.861V112.222H161.306V108.667ZM161.306 112.222H164.861V115.778H161.306V112.222Z" fill="black"/>
</svg>
