<svg width="489" height="239" viewBox="0 0 489 239" fill="none" xmlns="http://www.w3.org/2000/svg">
<rect width="489" height="239" fill="#FF3FD4"/>
<path d="M47.6667 94.6667H51.2222V98.2222H47.6667V94.6667ZM51.2222 94.6667H54.7778V98.2222H51.2222V94.6667ZM54.7778 94.6667H58.3333V98.2222H54.7778V94.6667ZM58.3333 94.6667H61.8889V98.2222H58.3333V94.6667ZM61.8889 94.6667H65.4444V98.2222H61.8889V94.6667ZM65.4444 94.6667H69V98.2222H65.4444V94.6667ZM65.4444 98.2222H69V101.778H65.4444V98.2222ZM69 98.2222H72.5556V101.778H69V98.2222ZM61.8889 98.2222H65.4444V101.778H61.8889V98.2222ZM58.3333 98.2222H61.8889V101.778H58.3333V98.2222ZM54.7778 98.2222H58.3333V101.778H54.7778V98.2222ZM51.2222 98.2222H54.7778V101.778H51.2222V98.2222ZM47.6667 98.2222H51.2222V101.778H47.6667V98.2222ZM44.1111 101.778H47.6667V105.333H44.1111V101.778ZM44.1111 98.2222H47.6667V101.778H44.1111V98.2222ZM40.5556 101.778H44.1111V105.333H40.5556V101.778ZM47.6667 101.778H51.2222V105.333H47.6667V101.778ZM51.2222 101.778H54.7778V105.333H51.2222V101.778ZM54.7778 101.778H58.3333V105.333H54.7778V101.778ZM58.3333 101.778H61.8889V105.333H58.3333V101.778ZM61.8889 101.778H65.4444V105.333H61.8889V101.778ZM65.4444 101.778H69V105.333H65.4444V101.778ZM69 101.778H72.5556V105.333H69V101.778ZM72.5556 101.778H76.1111V105.333H72.5556V101.778ZM72.5556 105.333H76.1111V108.889H72.5556V105.333ZM69 105.333H72.5556V108.889H69V105.333ZM65.4444 105.333H69V108.889H65.4444V105.333ZM72.5556 130.222H76.1111V133.778H72.5556V130.222ZM72.5556 133.778H76.1111V137.333H72.5556V133.778ZM72.5556 137.333H76.1111V140.889H72.5556V137.333ZM69 137.333H72.5556V140.889H69V137.333ZM69 133.778H72.5556V137.333H69V133.778ZM69 130.222H72.5556V133.778H69V130.222ZM65.4444 130.222H69V133.778H65.4444V130.222ZM65.4444 133.778H69V137.333H65.4444V133.778ZM61.8889 133.778H65.4444V137.333H61.8889V133.778ZM65.4444 137.333H69V140.889H65.4444V137.333ZM69 140.889H72.5556V144.444H69V140.889ZM65.4444 140.889H69V144.444H65.4444V140.889ZM61.8889 137.333H65.4444V140.889H61.8889V137.333ZM61.8889 140.889H65.4444V144.444H61.8889V140.889ZM65.4444 144.444H69V148H65.4444V144.444ZM61.8889 144.444H65.4444V148H61.8889V144.444ZM58.3333 144.444H61.8889V148H58.3333V144.444ZM54.7778 144.444H58.3333V148H54.7778V144.444ZM51.2222 144.444H54.7778V148H51.2222V144.444ZM47.6667 144.444H51.2222V148H47.6667V144.444ZM47.6667 140.889H51.2222V144.444H47.6667V140.889ZM51.2222 140.889H54.7778V144.444H51.2222V140.889ZM51.2222 137.333H54.7778V140.889H51.2222V137.333ZM54.7778 137.333H58.3333V140.889H54.7778V137.333ZM58.3333 137.333H61.8889V140.889H58.3333V137.333ZM58.3333 140.889H61.8889V144.444H58.3333V140.889ZM54.7778 140.889H58.3333V144.444H54.7778V140.889ZM44.1111 140.889H47.6667V144.444H44.1111V140.889ZM47.6667 137.333H51.2222V140.889H47.6667V137.333ZM51.2222 133.778H54.7778V137.333H51.2222V133.778ZM47.6667 133.778H51.2222V137.333H47.6667V133.778ZM44.1111 133.778H47.6667V137.333H44.1111V133.778ZM44.1111 137.333H47.6667V140.889H44.1111V137.333ZM40.5556 137.333H44.1111V140.889H40.5556V137.333ZM40.5556 133.778H44.1111V137.333H40.5556V133.778ZM40.5556 130.222H44.1111V133.778H40.5556V130.222ZM40.5556 126.667H44.1111V130.222H40.5556V126.667ZM40.5556 123.111H44.1111V126.667H40.5556V123.111ZM40.5556 119.556H44.1111V123.111H40.5556V119.556ZM40.5556 116H44.1111V119.556H40.5556V116ZM40.5556 112.444H44.1111V116H40.5556V112.444ZM40.5556 108.889H44.1111V112.444H40.5556V108.889ZM40.5556 105.333H44.1111V108.889H40.5556V105.333ZM44.1111 105.333H47.6667V108.889H44.1111V105.333ZM47.6667 105.333H51.2222V108.889H47.6667V105.333ZM51.2222 105.333H54.7778V108.889H51.2222V105.333ZM47.6667 108.889H51.2222V112.444H47.6667V108.889ZM47.6667 112.444H51.2222V116H47.6667V112.444ZM47.6667 116H51.2222V119.556H47.6667V116ZM47.6667 119.556H51.2222V123.111H47.6667V119.556ZM47.6667 123.111H51.2222V126.667H47.6667V123.111ZM47.6667 126.667H51.2222V130.222H47.6667V126.667ZM47.6667 130.222H51.2222V133.778H47.6667V130.222ZM44.1111 130.222H47.6667V133.778H44.1111V130.222ZM44.1111 126.667H47.6667V130.222H44.1111V126.667ZM44.1111 123.111H47.6667V126.667H44.1111V123.111ZM44.1111 119.556H47.6667V123.111H44.1111V119.556ZM44.1111 116H47.6667V119.556H44.1111V116ZM44.1111 112.444H47.6667V116H44.1111V112.444ZM44.1111 108.889H47.6667V112.444H44.1111V108.889ZM58.3333 116H61.8889V119.556H58.3333V116ZM61.8889 116H65.4444V119.556H61.8889V116ZM65.4444 116H69V119.556H65.4444V116ZM69 116H72.5556V119.556H69V116ZM72.5556 116H76.1111V119.556H72.5556V116ZM72.5556 119.556H76.1111V123.111H72.5556V119.556ZM72.5556 123.111H76.1111V126.667H72.5556V123.111ZM72.5556 126.667H76.1111V130.222H72.5556V126.667ZM69 126.667H72.5556V130.222H69V126.667ZM65.4444 126.667H69V130.222H65.4444V126.667ZM65.4444 123.111H69V126.667H65.4444V123.111ZM65.4444 119.556H69V123.111H65.4444V119.556ZM69 119.556H72.5556V123.111H69V119.556ZM69 123.111H72.5556V126.667H69V123.111ZM61.8889 123.111H65.4444V126.667H61.8889V123.111ZM58.3333 123.111H61.8889V126.667H58.3333V123.111ZM58.3333 119.556H61.8889V123.111H58.3333V119.556ZM61.8889 119.556H65.4444V123.111H61.8889V119.556ZM111.656 148H108.101V144.444H111.656V148ZM104.545 148H100.99V144.444H104.545V148ZM100.99 148H97.434V144.444H100.99V148ZM97.434 148H93.8785V144.444H97.434V148ZM93.8785 148H90.3229V144.444H93.8785V148ZM90.3229 144.444H86.7674V140.889H90.3229V144.444ZM93.8785 144.444H90.3229V140.889H93.8785V144.444ZM97.434 144.444H93.8785V140.889H97.434V144.444ZM100.99 144.444H97.434V140.889H100.99V144.444ZM104.545 144.444H100.99V140.889H104.545V144.444ZM108.101 144.444H104.545V140.889H108.101V144.444ZM111.656 144.444H108.101V140.889H111.656V144.444ZM115.212 144.444H111.656V140.889H115.212V144.444ZM115.212 140.889H111.656V137.333H115.212V140.889ZM111.656 140.889H108.101V137.333H111.656V140.889ZM118.767 140.889H115.212V137.333H118.767V140.889ZM118.767 137.333H115.212V133.778H118.767V137.333ZM118.767 133.778H115.212V130.222H118.767V133.778ZM115.212 133.778H111.656V130.222H115.212V133.778ZM111.656 133.778H108.101V130.222H111.656V133.778ZM111.656 137.333H108.101V133.778H111.656V137.333ZM115.212 137.333H111.656V133.778H115.212V137.333ZM115.212 130.222H111.656V126.667H115.212V130.222ZM115.212 126.667H111.656V123.111H115.212V126.667ZM115.212 123.111H111.656V119.556H115.212V123.111ZM118.767 123.111H115.212V119.556H118.767V123.111ZM118.767 119.556H115.212V116H118.767V119.556ZM118.767 126.667H115.212V123.111H118.767V126.667ZM118.767 130.222H115.212V126.667H118.767V130.222ZM111.656 130.222H108.101V126.667H111.656V130.222ZM111.656 126.667H108.101V123.111H111.656V126.667ZM111.656 123.111H108.101V119.556H111.656V123.111ZM111.656 119.556H108.101V116H111.656V119.556ZM115.212 119.556H111.656V116H115.212V119.556ZM115.212 116H111.656V112.444H115.212V116ZM111.656 116H108.101V112.444H111.656V116ZM108.101 116H104.545V112.444H108.101V116ZM108.101 119.556H104.545V116H108.101V119.556ZM111.656 112.444H108.101V108.889H111.656V112.444ZM108.101 112.444H104.545V108.889H108.101V112.444ZM104.545 112.444H100.99V108.889H104.545V112.444ZM100.99 112.444H97.434V108.889H100.99V112.444ZM97.434 112.444H93.8785V108.889H97.434V112.444ZM93.8785 112.444H90.3229V108.889H93.8785V112.444ZM97.434 116H93.8785V112.444H97.434V116ZM100.99 116H97.434V112.444H100.99V116ZM104.545 116H100.99V112.444H104.545V116ZM93.8785 116H90.3229V112.444H93.8785V116ZM90.3229 116H86.7674V112.444H90.3229V116ZM93.8785 119.556H90.3229V116H93.8785V119.556ZM97.434 119.556H93.8785V116H97.434V119.556ZM90.3229 119.556H86.7674V116H90.3229V119.556ZM86.7674 119.556H83.2118V116H86.7674V119.556ZM90.3229 137.333H86.7674V133.778H90.3229V137.333ZM86.7674 137.333H83.2118V133.778H86.7674V137.333ZM86.7674 140.889H83.2118V137.333H86.7674V140.889ZM93.8785 137.333H90.3229V133.778H93.8785V137.333ZM93.8785 140.889H90.3229V137.333H93.8785V140.889ZM90.3229 140.889H86.7674V137.333H90.3229V140.889ZM104.545 119.556H100.99V116H104.545V119.556ZM100.99 119.556H97.434V116H100.99V119.556ZM90.3229 133.778H86.7674V130.222H90.3229V133.778ZM93.8785 133.778H90.3229V130.222H93.8785V133.778ZM104.545 130.222H100.99V126.667H104.545V130.222ZM100.99 130.222H97.434V126.667H100.99V130.222ZM97.434 130.222H93.8785V126.667H97.434V130.222ZM93.8785 130.222H90.3229V126.667H93.8785V130.222ZM108.101 130.222H104.545V126.667H108.101V130.222ZM115.212 140.889H118.767V144.444H115.212V140.889ZM115.212 144.444H118.767V148H115.212V144.444ZM111.656 144.444H115.212V148H111.656V144.444ZM104.545 123.111H108.101V126.667H104.545V123.111ZM100.99 123.111H104.545V126.667H100.99V123.111ZM97.434 123.111H100.99V126.667H97.434V123.111ZM93.8785 123.111H97.434V126.667H93.8785V123.111ZM90.3229 123.111H93.8785V126.667H90.3229V123.111ZM86.7674 126.667H90.3229V130.222H86.7674V126.667ZM83.2118 130.222H86.7674V133.778H83.2118V130.222ZM93.8785 137.333H97.434V140.889H93.8785V137.333ZM97.434 137.333H100.99V140.889H97.434V137.333ZM100.99 137.333H104.545V140.889H100.99V137.333ZM104.545 137.333H108.101V140.889H104.545V137.333ZM132.979 108.889H136.535V112.444H132.979V108.889ZM129.424 112.444H132.979V116H129.424V112.444ZM129.424 116H132.979V119.556H129.424V116ZM125.868 112.444H129.424V116H125.868V112.444ZM125.868 108.889H129.424V112.444H125.868V108.889ZM129.424 108.889H132.979V112.444H129.424V108.889ZM129.424 119.556H132.979V123.111H129.424V119.556ZM125.868 119.556H129.424V123.111H125.868V119.556ZM125.868 123.111H129.424V126.667H125.868V123.111ZM125.868 116H129.424V119.556H125.868V116ZM125.868 126.667H129.424V130.222H125.868V126.667ZM125.868 130.222H129.424V133.778H125.868V130.222ZM125.868 133.778H129.424V137.333H125.868V133.778ZM125.868 137.333H129.424V140.889H125.868V137.333ZM125.868 140.889H129.424V144.444H125.868V140.889ZM129.424 140.889H132.979V144.444H129.424V140.889ZM132.979 140.889H136.535V144.444H132.979V140.889ZM132.979 144.444H136.535V148H132.979V144.444ZM129.424 144.444H132.979V148H129.424V144.444ZM125.868 144.444H129.424V148H125.868V144.444ZM132.979 137.333H136.535V140.889H132.979V137.333ZM132.979 133.778H136.535V137.333H132.979V133.778ZM132.979 130.222H136.535V133.778H132.979V130.222ZM132.979 126.667H136.535V130.222H132.979V126.667ZM132.979 123.111H136.535V126.667H132.979V123.111ZM132.979 119.556H136.535V123.111H132.979V119.556ZM132.979 116H136.535V119.556H132.979V116ZM132.979 112.444H136.535V116H132.979V112.444ZM129.424 123.111H132.979V126.667H129.424V123.111ZM129.424 130.222H132.979V133.778H129.424V130.222ZM129.424 133.778H132.979V137.333H129.424V133.778ZM129.424 137.333H132.979V140.889H129.424V137.333ZM129.424 126.667H132.979V130.222H129.424V126.667ZM147.201 144.444H150.757V148H147.201V144.444ZM150.757 144.444H154.313V148H150.757V144.444ZM150.757 140.889H154.313V144.444H150.757V140.889ZM150.757 137.333H154.313V140.889H150.757V137.333ZM150.757 133.778H154.313V137.333H150.757V133.778ZM154.313 133.778H157.868V137.333H154.313V133.778ZM154.313 130.222H157.868V133.778H154.313V130.222ZM154.313 137.333H157.868V140.889H154.313V137.333ZM154.313 140.889H157.868V144.444H154.313V140.889ZM154.313 144.444H157.868V148H154.313V144.444ZM147.201 140.889H150.757V144.444H147.201V140.889ZM147.201 137.333H150.757V140.889H147.201V137.333ZM147.201 133.778H150.757V137.333H147.201V133.778ZM147.201 130.222H150.757V133.778H147.201V130.222ZM147.201 126.667H150.757V130.222H147.201V126.667ZM147.201 123.111H150.757V126.667H147.201V123.111ZM147.201 119.556H150.757V123.111H147.201V119.556ZM147.201 116H150.757V119.556H147.201V116ZM147.201 112.444H150.757V116H147.201V112.444ZM143.646 112.444H147.201V116H143.646V112.444ZM150.757 116H154.313V119.556H150.757V116ZM150.757 119.556H154.313V123.111H150.757V119.556ZM150.757 123.111H154.313V126.667H150.757V123.111ZM150.757 126.667H154.313V130.222H150.757V126.667ZM150.757 130.222H154.313V133.778H150.757V130.222ZM154.313 126.667H157.868V130.222H154.313V126.667ZM154.313 123.111H157.868V126.667H154.313V123.111ZM154.313 119.556H157.868V123.111H154.313V119.556ZM154.313 116H157.868V119.556H154.313V116ZM150.757 112.444H154.313V116H150.757V112.444ZM147.201 108.889H150.757V112.444H147.201V108.889ZM143.646 108.889H147.201V112.444H143.646V108.889ZM140.09 108.889H143.646V112.444H140.09V108.889ZM140.09 112.444H143.646V116H140.09V112.444ZM136.535 112.444H140.09V116H136.535V112.444ZM136.535 116H140.09V119.556H136.535V116ZM140.09 116H143.646V119.556H140.09V116ZM143.646 116H147.201V119.556H143.646V116ZM136.535 119.556H140.09V123.111H136.535V119.556ZM168.535 144.444H172.09V148H168.535V144.444ZM172.09 144.444H175.646V148H172.09V144.444ZM172.09 140.889H175.646V144.444H172.09V140.889ZM172.09 137.333H175.646V140.889H172.09V137.333ZM172.09 133.778H175.646V137.333H172.09V133.778ZM175.646 133.778H179.201V137.333H175.646V133.778ZM175.646 130.222H179.201V133.778H175.646V130.222ZM175.646 137.333H179.201V140.889H175.646V137.333ZM175.646 140.889H179.201V144.444H175.646V140.889ZM175.646 144.444H179.201V148H175.646V144.444ZM168.535 140.889H172.09V144.444H168.535V140.889ZM168.535 137.333H172.09V140.889H168.535V137.333ZM168.535 133.778H172.09V137.333H168.535V133.778ZM168.535 130.222H172.09V133.778H168.535V130.222ZM168.535 126.667H172.09V130.222H168.535V126.667ZM168.535 123.111H172.09V126.667H168.535V123.111ZM168.535 119.556H172.09V123.111H168.535V119.556ZM168.535 116H172.09V119.556H168.535V116ZM168.535 112.444H172.09V116H168.535V112.444ZM164.979 112.444H168.535V116H164.979V112.444ZM172.09 116H175.646V119.556H172.09V116ZM172.09 119.556H175.646V123.111H172.09V119.556ZM172.09 123.111H175.646V126.667H172.09V123.111ZM172.09 126.667H175.646V130.222H172.09V126.667ZM172.09 130.222H175.646V133.778H172.09V130.222ZM175.646 126.667H179.201V130.222H175.646V126.667ZM175.646 123.111H179.201V126.667H175.646V123.111ZM175.646 119.556H179.201V123.111H175.646V119.556ZM175.646 116H179.201V119.556H175.646V116ZM172.09 112.444H175.646V116H172.09V112.444ZM168.535 108.889H172.09V112.444H168.535V108.889ZM164.979 108.889H168.535V112.444H164.979V108.889ZM161.424 108.889H164.979V112.444H161.424V108.889ZM161.424 112.444H164.979V116H161.424V112.444ZM157.868 112.444H161.424V116H157.868V112.444ZM157.868 116H161.424V119.556H157.868V116ZM161.424 116H164.979V119.556H161.424V116ZM164.979 116H168.535V119.556H164.979V116ZM157.868 119.556H161.424V123.111H157.868V119.556ZM193.448 108.889H197.003V112.444H193.448V108.889ZM197.003 108.889H200.559V112.444H197.003V108.889ZM200.559 108.889H204.115V112.444H200.559V108.889ZM204.115 108.889H207.67V112.444H204.115V108.889ZM207.67 108.889H211.226V112.444H207.67V108.889ZM211.226 108.889H214.781V112.444H211.226V108.889ZM214.781 112.444H218.337V116H214.781V112.444ZM211.226 112.444H214.781V116H211.226V112.444ZM207.67 112.444H211.226V116H207.67V112.444ZM204.115 112.444H207.67V116H204.115V112.444ZM200.559 112.444H204.115V116H200.559V112.444ZM197.003 112.444H200.559V116H197.003V112.444ZM193.448 112.444H197.003V116H193.448V112.444ZM189.892 112.444H193.448V116H189.892V112.444ZM189.892 116H193.448V119.556H189.892V116ZM193.448 116H197.003V119.556H193.448V116ZM186.337 116H189.892V119.556H186.337V116ZM186.337 119.556H189.892V123.111H186.337V119.556ZM186.337 123.111H189.892V126.667H186.337V123.111ZM189.892 123.111H193.448V126.667H189.892V123.111ZM193.448 123.111H197.003V126.667H193.448V123.111ZM193.448 119.556H197.003V123.111H193.448V119.556ZM189.892 119.556H193.448V123.111H189.892V119.556ZM189.892 126.667H193.448V130.222H189.892V126.667ZM189.892 130.222H193.448V133.778H189.892V130.222ZM189.892 133.778H193.448V137.333H189.892V133.778ZM186.337 133.778H189.892V137.333H186.337V133.778ZM186.337 137.333H189.892V140.889H186.337V137.333ZM186.337 130.222H189.892V133.778H186.337V130.222ZM186.337 126.667H189.892V130.222H186.337V126.667ZM193.448 126.667H197.003V130.222H193.448V126.667ZM193.448 130.222H197.003V133.778H193.448V130.222ZM193.448 133.778H197.003V137.333H193.448V133.778ZM193.448 137.333H197.003V140.889H193.448V137.333ZM189.892 137.333H193.448V140.889H189.892V137.333ZM189.892 140.889H193.448V144.444H189.892V140.889ZM193.448 140.889H197.003V144.444H193.448V140.889ZM197.003 140.889H200.559V144.444H197.003V140.889ZM197.003 137.333H200.559V140.889H197.003V137.333ZM193.448 144.444H197.003V148H193.448V144.444ZM197.003 144.444H200.559V148H197.003V144.444ZM200.559 144.444H204.115V148H200.559V144.444ZM204.115 144.444H207.67V148H204.115V144.444ZM207.67 144.444H211.226V148H207.67V144.444ZM211.226 144.444H214.781V148H211.226V144.444ZM207.67 140.889H211.226V144.444H207.67V140.889ZM204.115 140.889H207.67V144.444H204.115V140.889ZM200.559 140.889H204.115V144.444H200.559V140.889ZM211.226 140.889H214.781V144.444H211.226V140.889ZM214.781 140.889H218.337V144.444H214.781V140.889ZM211.226 137.333H214.781V140.889H211.226V137.333ZM207.67 137.333H211.226V140.889H207.67V137.333ZM214.781 137.333H218.337V140.889H214.781V137.333ZM218.337 137.333H221.892V140.889H218.337V137.333ZM214.781 119.556H218.337V123.111H214.781V119.556ZM218.337 119.556H221.892V123.111H218.337V119.556ZM218.337 116H221.892V119.556H218.337V116ZM211.226 119.556H214.781V123.111H211.226V119.556ZM211.226 116H214.781V119.556H211.226V116ZM214.781 116H218.337V119.556H214.781V116ZM200.559 137.333H204.115V140.889H200.559V137.333ZM204.115 137.333H207.67V140.889H204.115V137.333ZM218.337 123.111H221.892V126.667H218.337V123.111ZM214.781 123.111H218.337V126.667H214.781V123.111ZM211.226 123.111H214.781V126.667H211.226V123.111ZM200.559 126.667H204.115V130.222H200.559V126.667ZM204.115 126.667H207.67V130.222H204.115V126.667ZM207.67 126.667H211.226V130.222H207.67V126.667ZM211.226 126.667H214.781V130.222H211.226V126.667ZM214.781 126.667H218.337V130.222H214.781V126.667ZM218.337 126.667H221.892V130.222H218.337V126.667ZM197.003 126.667H200.559V130.222H197.003V126.667ZM197.003 116H200.559V119.556H197.003V116ZM200.559 116H204.115V119.556H200.559V116ZM204.115 116H207.67V119.556H204.115V116ZM207.67 116H211.226V119.556H207.67V116ZM218.337 130.222H221.892V133.778H218.337V130.222ZM214.781 130.222H218.337V133.778H214.781V130.222ZM207.67 130.222H211.226V133.778H207.67V130.222ZM204.115 130.222H207.67V133.778H204.115V130.222ZM200.559 130.222H204.115V133.778H200.559V130.222ZM197.003 130.222H200.559V133.778H197.003V130.222ZM211.226 130.222H214.781V133.778H211.226V130.222ZM257.438 116H260.993V119.556H257.438V116ZM257.438 112.444H260.993V116H257.438V112.444ZM253.882 116H257.438V119.556H253.882V116ZM250.326 116H253.882V119.556H250.326V116ZM250.326 112.444H253.882V116H250.326V112.444ZM253.882 112.444H257.438V116H253.882V112.444ZM253.882 108.889H257.438V112.444H253.882V108.889ZM250.326 108.889H253.882V112.444H250.326V108.889ZM246.771 108.889H250.326V112.444H246.771V108.889ZM243.215 108.889H246.771V112.444H243.215V108.889ZM239.66 108.889H243.215V112.444H239.66V108.889ZM236.104 108.889H239.66V112.444H236.104V108.889ZM236.104 112.444H239.66V116H236.104V112.444ZM239.66 112.444H243.215V116H239.66V112.444ZM243.215 112.444H246.771V116H243.215V112.444ZM246.771 112.444H250.326V116H246.771V112.444ZM232.549 112.444H236.104V116H232.549V112.444ZM232.549 116H236.104V119.556H232.549V116ZM232.549 119.556H236.104V123.111H232.549V119.556ZM236.104 119.556H239.66V123.111H236.104V119.556ZM236.104 116H239.66V119.556H236.104V116ZM228.993 119.556H232.549V123.111H228.993V119.556ZM228.993 116H232.549V119.556H228.993V116ZM236.104 123.111H239.66V126.667H236.104V123.111ZM232.549 123.111H236.104V126.667H232.549V123.111ZM236.104 126.667H239.66V130.222H236.104V126.667ZM239.66 126.667H243.215V130.222H239.66V126.667ZM243.215 126.667H246.771V130.222H243.215V126.667ZM243.215 123.111H246.771V126.667H243.215V123.111ZM246.771 123.111H250.326V126.667H246.771V123.111ZM246.771 126.667H250.326V130.222H246.771V126.667ZM250.326 126.667H253.882V130.222H250.326V126.667ZM253.882 126.667H257.438V130.222H253.882V126.667ZM253.882 123.111H257.438V126.667H253.882V123.111ZM250.326 123.111H253.882V126.667H250.326V123.111ZM239.66 123.111H243.215V126.667H239.66V123.111ZM228.993 133.778H232.549V137.333H228.993V133.778ZM228.993 137.333H232.549V140.889H228.993V137.333ZM232.549 133.778H236.104V137.333H232.549V133.778ZM236.104 133.778H239.66V137.333H236.104V133.778ZM236.104 137.333H239.66V140.889H236.104V137.333ZM232.549 137.333H236.104V140.889H232.549V137.333ZM232.549 140.889H236.104V144.444H232.549V140.889ZM236.104 140.889H239.66V144.444H236.104V140.889ZM239.66 140.889H243.215V144.444H239.66V140.889ZM239.66 137.333H243.215V140.889H239.66V137.333ZM236.104 144.444H239.66V148H236.104V144.444ZM239.66 144.444H243.215V148H239.66V144.444ZM243.215 144.444H246.771V148H243.215V144.444ZM246.771 144.444H250.326V148H246.771V144.444ZM250.326 144.444H253.882V148H250.326V144.444ZM246.771 140.889H250.326V144.444H246.771V140.889ZM243.215 140.889H246.771V144.444H243.215V140.889ZM250.326 140.889H253.882V144.444H250.326V140.889ZM253.882 140.889H257.438V144.444H253.882V140.889ZM253.882 144.444H257.438V148H253.882V144.444ZM257.438 140.889H260.993V144.444H257.438V140.889ZM253.882 137.333H257.438V140.889H253.882V137.333ZM250.326 137.333H253.882V140.889H250.326V137.333ZM257.438 137.333H260.993V140.889H257.438V137.333ZM260.993 137.333H264.549V140.889H260.993V137.333ZM260.993 133.778H264.549V137.333H260.993V133.778ZM260.993 130.222H264.549V133.778H260.993V130.222ZM257.438 130.222H260.993V133.778H257.438V130.222ZM257.438 126.667H260.993V130.222H257.438V126.667ZM253.882 130.222H257.438V133.778H253.882V130.222ZM250.326 130.222H253.882V133.778H250.326V130.222ZM253.882 133.778H257.438V137.333H253.882V133.778ZM257.438 133.778H260.993V137.333H257.438V133.778ZM239.66 116H243.215V119.556H239.66V116Z" fill="black"/>
</svg>
