<svg width="638" height="65" viewBox="0 0 638 65" fill="none" xmlns="http://www.w3.org/2000/svg">
<path d="M0.555556 50.4444H4.11111V54H0.555556V50.4444ZM4.11111 50.4444H7.66667V54H4.11111V50.4444ZM7.66667 50.4444H11.2222V54H7.66667V50.4444ZM7.66667 46.8889H11.2222V50.4444H7.66667V46.8889ZM7.66667 43.3333H11.2222V46.8889H7.66667V43.3333ZM7.66667 39.7778H11.2222V43.3333H7.66667V39.7778ZM7.66667 36.2222H11.2222V39.7778H7.66667V36.2222ZM7.66667 32.6667H11.2222V36.2222H7.66667V32.6667ZM7.66667 29.1111H11.2222V32.6667H7.66667V29.1111ZM7.66667 25.5556H11.2222V29.1111H7.66667V25.5556ZM7.66667 22H11.2222V25.5556H7.66667V22ZM4.11111 22H7.66667V25.5556H4.11111V22ZM4.11111 18.4444H7.66667V22H4.11111V18.4444ZM0.555556 22H4.11111V25.5556H0.555556V22ZM0.555556 25.5556H4.11111V29.1111H0.555556V25.5556ZM0.555556 29.1111H4.11111V32.6667H0.555556V29.1111ZM0.555556 32.6667H4.11111V36.2222H0.555556V32.6667ZM0.555556 36.2222H4.11111V39.7778H0.555556V36.2222ZM0.555556 39.7778H4.11111V43.3333H0.555556V39.7778ZM0.555556 43.3333H4.11111V46.8889H0.555556V43.3333ZM0.555556 46.8889H4.11111V50.4444H0.555556V46.8889ZM4.11111 46.8889H7.66667V50.4444H4.11111V46.8889ZM4.11111 43.3333H7.66667V46.8889H4.11111V43.3333ZM4.11111 39.7778H7.66667V43.3333H4.11111V39.7778ZM0.555556 18.4444H4.11111V22H0.555556V18.4444ZM7.66667 18.4444H11.2222V22H7.66667V18.4444ZM4.11111 25.5556H7.66667V29.1111H4.11111V25.5556ZM4.11111 29.1111H7.66667V32.6667H4.11111V29.1111ZM4.11111 32.6667H7.66667V36.2222H4.11111V32.6667ZM4.11111 36.2222H7.66667V39.7778H4.11111V36.2222ZM0.555556 0.666664H4.11111V4.22222H0.555556V0.666664ZM4.11111 0.666664H7.66667V4.22222H4.11111V0.666664ZM7.66667 0.666664H11.2222V4.22222H7.66667V0.666664ZM7.66667 4.22222H11.2222V7.77778H7.66667V4.22222ZM7.66667 7.77778H11.2222V11.3333H7.66667V7.77778ZM7.66667 11.3333H11.2222V14.8889H7.66667V11.3333ZM7.66667 14.8889H11.2222V18.4444H7.66667V14.8889ZM4.11111 14.8889H7.66667V18.4444H4.11111V14.8889ZM4.11111 11.3333H7.66667V14.8889H4.11111V11.3333ZM4.11111 7.77778H7.66667V11.3333H4.11111V7.77778ZM4.11111 4.22222H7.66667V7.77778H4.11111V4.22222ZM0.555556 4.22222H4.11111V7.77778H0.555556V4.22222ZM0.555556 7.77778H4.11111V11.3333H0.555556V7.77778ZM0.555556 11.3333H4.11111V14.8889H0.555556V11.3333ZM0.555556 14.8889H4.11111V18.4444H0.555556V14.8889ZM25.4792 14.8889H29.0347V18.4444H25.4792V14.8889ZM21.9236 18.4444H25.4792V22H21.9236V18.4444ZM21.9236 22H25.4792V25.5556H21.9236V22ZM18.3681 18.4444H21.9236V22H18.3681V18.4444ZM18.3681 14.8889H21.9236V18.4444H18.3681V14.8889ZM21.9236 14.8889H25.4792V18.4444H21.9236V14.8889ZM21.9236 25.5556H25.4792V29.1111H21.9236V25.5556ZM18.3681 25.5556H21.9236V29.1111H18.3681V25.5556ZM18.3681 29.1111H21.9236V32.6667H18.3681V29.1111ZM18.3681 22H21.9236V25.5556H18.3681V22ZM18.3681 32.6667H21.9236V36.2222H18.3681V32.6667ZM18.3681 36.2222H21.9236V39.7778H18.3681V36.2222ZM18.3681 39.7778H21.9236V43.3333H18.3681V39.7778ZM18.3681 43.3333H21.9236V46.8889H18.3681V43.3333ZM18.3681 46.8889H21.9236V50.4444H18.3681V46.8889ZM21.9236 46.8889H25.4792V50.4444H21.9236V46.8889ZM25.4792 46.8889H29.0347V50.4444H25.4792V46.8889ZM25.4792 50.4444H29.0347V54H25.4792V50.4444ZM21.9236 50.4444H25.4792V54H21.9236V50.4444ZM18.3681 50.4444H21.9236V54H18.3681V50.4444ZM25.4792 43.3333H29.0347V46.8889H25.4792V43.3333ZM25.4792 39.7778H29.0347V43.3333H25.4792V39.7778ZM25.4792 36.2222H29.0347V39.7778H25.4792V36.2222ZM25.4792 32.6667H29.0347V36.2222H25.4792V32.6667ZM25.4792 29.1111H29.0347V32.6667H25.4792V29.1111ZM25.4792 25.5556H29.0347V29.1111H25.4792V25.5556ZM25.4792 22H29.0347V25.5556H25.4792V22ZM25.4792 18.4444H29.0347V22H25.4792V18.4444ZM21.9236 29.1111H25.4792V32.6667H21.9236V29.1111ZM21.9236 36.2222H25.4792V39.7778H21.9236V36.2222ZM21.9236 39.7778H25.4792V43.3333H21.9236V39.7778ZM21.9236 43.3333H25.4792V46.8889H21.9236V43.3333ZM21.9236 32.6667H25.4792V36.2222H21.9236V32.6667ZM43.2569 50.4444H46.8125V54H43.2569V50.4444ZM46.8125 50.4444H50.3681V54H46.8125V50.4444ZM46.8125 46.8889H50.3681V50.4444H46.8125V46.8889ZM46.8125 43.3333H50.3681V46.8889H46.8125V43.3333ZM46.8125 39.7778H50.3681V43.3333H46.8125V39.7778ZM50.3681 39.7778H53.9236V43.3333H50.3681V39.7778ZM50.3681 36.2222H53.9236V39.7778H50.3681V36.2222ZM50.3681 43.3333H53.9236V46.8889H50.3681V43.3333ZM50.3681 46.8889H53.9236V50.4444H50.3681V46.8889ZM50.3681 50.4444H53.9236V54H50.3681V50.4444ZM43.2569 46.8889H46.8125V50.4444H43.2569V46.8889ZM43.2569 43.3333H46.8125V46.8889H43.2569V43.3333ZM43.2569 39.7778H46.8125V43.3333H43.2569V39.7778ZM43.2569 36.2222H46.8125V39.7778H43.2569V36.2222ZM43.2569 32.6667H46.8125V36.2222H43.2569V32.6667ZM43.2569 29.1111H46.8125V32.6667H43.2569V29.1111ZM43.2569 25.5556H46.8125V29.1111H43.2569V25.5556ZM43.2569 22H46.8125V25.5556H43.2569V22ZM43.2569 18.4444H46.8125V22H43.2569V18.4444ZM39.7014 18.4444H43.2569V22H39.7014V18.4444ZM36.1458 18.4444H39.7014V22H36.1458V18.4444ZM46.8125 22H50.3681V25.5556H46.8125V22ZM46.8125 25.5556H50.3681V29.1111H46.8125V25.5556ZM46.8125 29.1111H50.3681V32.6667H46.8125V29.1111ZM46.8125 32.6667H50.3681V36.2222H46.8125V32.6667ZM46.8125 36.2222H50.3681V39.7778H46.8125V36.2222ZM50.3681 32.6667H53.9236V36.2222H50.3681V32.6667ZM50.3681 29.1111H53.9236V32.6667H50.3681V29.1111ZM50.3681 25.5556H53.9236V29.1111H50.3681V25.5556ZM50.3681 22H53.9236V25.5556H50.3681V22ZM46.8125 18.4444H50.3681V22H46.8125V18.4444ZM43.2569 14.8889H46.8125V18.4444H43.2569V14.8889ZM39.7014 14.8889H43.2569V18.4444H39.7014V14.8889ZM36.1458 14.8889H39.7014V18.4444H36.1458V14.8889ZM32.5903 14.8889H36.1458V18.4444H32.5903V14.8889ZM32.5903 18.4444H36.1458V22H32.5903V18.4444ZM29.0347 18.4444H32.5903V22H29.0347V18.4444ZM29.0347 22H32.5903V25.5556H29.0347V22ZM32.5903 22H36.1458V25.5556H32.5903V22ZM36.1458 22H39.7014V25.5556H36.1458V22ZM39.7014 22H43.2569V25.5556H39.7014V22ZM29.0347 25.5556H32.5903V29.1111H29.0347V25.5556ZM96.5799 0.666664V4.22222H93.0243V0.666664H96.5799ZM96.5799 4.22222V7.77778H93.0243V4.22222H96.5799ZM96.5799 7.77778V11.3333H93.0243V7.77778H96.5799ZM96.5799 11.3333V14.8889H93.0243V11.3333H96.5799ZM96.5799 14.8889V18.4444H93.0243V14.8889H96.5799ZM96.5799 18.4444V22H93.0243V18.4444H96.5799ZM96.5799 46.8889V50.4444H93.0243V46.8889H96.5799ZM96.5799 50.4444V54H93.0243V50.4444H96.5799ZM93.0243 50.4444V54H89.4688V50.4444H93.0243ZM89.4688 0.666664V4.22222H85.9132V0.666664H89.4688ZM93.0243 0.666664V4.22222H89.4688V0.666664H93.0243ZM93.0243 4.22222V7.77778H89.4688V4.22222H93.0243ZM89.4688 4.22222V7.77778H85.9132V4.22222H89.4688ZM89.4688 7.77778V11.3333H85.9132V7.77778H89.4688ZM89.4688 11.3333V14.8889H85.9132V11.3333H89.4688ZM93.0243 14.8889V18.4444H89.4688V14.8889H93.0243ZM93.0243 11.3333V14.8889H89.4688V11.3333H93.0243ZM93.0243 7.77778V11.3333H89.4688V7.77778H93.0243ZM82.3576 14.8889V18.4444H78.8021V14.8889H82.3576ZM78.8021 14.8889V18.4444H75.2465V14.8889H78.8021ZM75.2465 14.8889V18.4444H71.691V14.8889H75.2465ZM71.691 14.8889V18.4444H68.1354V14.8889H71.691ZM68.1354 18.4444V22H64.5799V18.4444H68.1354ZM71.691 18.4444V22H68.1354V18.4444H71.691ZM75.2465 18.4444V22H71.691V18.4444H75.2465ZM78.8021 18.4444V22H75.2465V18.4444H78.8021ZM82.3576 18.4444V22H78.8021V18.4444H82.3576ZM85.9132 18.4444V22H82.3576V18.4444H85.9132ZM93.0243 18.4444V22H89.4688V18.4444H93.0243ZM89.4688 39.7778V43.3333H85.9132V39.7778H89.4688ZM85.9132 46.8889V50.4444H82.3576V46.8889H85.9132ZM85.9132 43.3333V46.8889H82.3576V43.3333H85.9132ZM82.3576 50.4444V54H78.8021V50.4444H82.3576ZM78.8021 50.4444V54H75.2465V50.4444H78.8021ZM75.2465 50.4444V54H71.691V50.4444H75.2465ZM71.691 50.4444V54H68.1354V50.4444H71.691ZM75.2465 46.8889V50.4444H71.691V46.8889H75.2465ZM78.8021 46.8889V50.4444H75.2465V46.8889H78.8021ZM82.3576 46.8889V50.4444H78.8021V46.8889H82.3576ZM71.691 46.8889V50.4444H68.1354V46.8889H71.691ZM68.1354 46.8889V50.4444H64.5799V46.8889H68.1354ZM71.691 43.3333V46.8889H68.1354V43.3333H71.691ZM75.2465 43.3333V46.8889H71.691V43.3333H75.2465ZM68.1354 43.3333V46.8889H64.5799V43.3333H68.1354ZM64.5799 43.3333V46.8889H61.0243V43.3333H64.5799ZM64.5799 39.7778V43.3333H61.0243V39.7778H64.5799ZM68.1354 36.2222V39.7778H64.5799V36.2222H68.1354ZM68.1354 39.7778V43.3333H64.5799V39.7778H68.1354ZM71.691 39.7778V43.3333H68.1354V39.7778H71.691ZM64.5799 36.2222V39.7778H61.0243V36.2222H64.5799ZM64.5799 32.6667V36.2222H61.0243V32.6667H64.5799ZM68.1354 32.6667V36.2222H64.5799V32.6667H68.1354ZM68.1354 29.1111V32.6667H64.5799V29.1111H68.1354ZM68.1354 25.5556V29.1111H64.5799V25.5556H68.1354ZM64.5799 25.5556V29.1111H61.0243V25.5556H64.5799ZM64.5799 22V25.5556H61.0243V22H64.5799ZM64.5799 29.1111V32.6667H61.0243V29.1111H64.5799ZM71.691 32.6667V36.2222H68.1354V32.6667H71.691ZM71.691 36.2222V39.7778H68.1354V36.2222H71.691ZM71.691 29.1111V32.6667H68.1354V29.1111H71.691ZM71.691 25.5556V29.1111H68.1354V25.5556H71.691ZM71.691 22V25.5556H68.1354V22H71.691ZM75.2465 22V25.5556H71.691V22H75.2465ZM68.1354 22V25.5556H64.5799V22H68.1354ZM85.9132 22V25.5556H82.3576V22H85.9132ZM82.3576 22V25.5556H78.8021V22H82.3576ZM78.8021 22V25.5556H75.2465V22H78.8021ZM82.3576 43.3333V46.8889H78.8021V43.3333H82.3576ZM78.8021 43.3333V46.8889H75.2465V43.3333H78.8021ZM89.4688 50.4444V54H85.9132V50.4444H89.4688ZM89.4688 46.8889V50.4444H85.9132V46.8889H89.4688ZM89.4688 43.3333V46.8889H85.9132V43.3333H89.4688ZM93.0243 43.3333V46.8889H89.4688V43.3333H93.0243ZM93.0243 46.8889V50.4444H89.4688V46.8889H93.0243ZM93.0243 39.7778V43.3333H89.4688V39.7778H93.0243ZM89.4688 36.2222V39.7778H85.9132V36.2222H89.4688ZM89.4688 32.6667V36.2222H85.9132V32.6667H89.4688ZM89.4688 29.1111V32.6667H85.9132V29.1111H89.4688ZM89.4688 25.5556V29.1111H85.9132V25.5556H89.4688ZM89.4688 22V25.5556H85.9132V22H89.4688ZM89.4688 18.4444V22H85.9132V18.4444H89.4688ZM89.4688 14.8889V18.4444H85.9132V14.8889H89.4688ZM93.0243 22V25.5556H89.4688V22H93.0243ZM93.0243 25.5556V29.1111H89.4688V25.5556H93.0243ZM93.0243 29.1111V32.6667H89.4688V29.1111H93.0243ZM93.0243 32.6667V36.2222H89.4688V32.6667H93.0243ZM93.0243 36.2222V39.7778H89.4688V36.2222H93.0243ZM96.5799 39.7778V43.3333H93.0243V39.7778H96.5799ZM96.5799 43.3333V46.8889H93.0243V43.3333H96.5799ZM96.5799 36.2222V39.7778H93.0243V36.2222H96.5799ZM96.5799 32.6667V36.2222H93.0243V32.6667H96.5799ZM96.5799 29.1111V32.6667H93.0243V29.1111H96.5799ZM96.5799 25.5556V29.1111H93.0243V25.5556H96.5799ZM96.5799 22V25.5556H93.0243V22H96.5799ZM82.3576 39.7778H85.9132V43.3333H82.3576V39.7778ZM82.3576 14.8889H85.9132V18.4444H82.3576V14.8889ZM103.681 14.8889H107.236V18.4444H103.681V14.8889ZM107.236 14.8889H110.792V18.4444H107.236V14.8889ZM107.236 18.4444H110.792V22H107.236V18.4444ZM110.792 18.4444H114.347V22H110.792V18.4444ZM110.792 22H114.347V25.5556H110.792V22ZM110.792 25.5556H114.347V29.1111H110.792V25.5556ZM110.792 14.8889H114.347V18.4444H110.792V14.8889ZM103.681 18.4444H107.236V22H103.681V18.4444ZM103.681 22H107.236V25.5556H103.681V22ZM103.681 25.5556H107.236V29.1111H103.681V25.5556ZM103.681 29.1111H107.236V32.6667H103.681V29.1111ZM107.236 29.1111H110.792V32.6667H107.236V29.1111ZM107.236 25.5556H110.792V29.1111H107.236V25.5556ZM107.236 22H110.792V25.5556H107.236V22ZM110.792 29.1111H114.347V32.6667H110.792V29.1111ZM110.792 32.6667H114.347V36.2222H110.792V32.6667ZM107.236 32.6667H110.792V36.2222H107.236V32.6667ZM103.681 32.6667H107.236V36.2222H103.681V32.6667ZM103.681 36.2222H107.236V39.7778H103.681V36.2222ZM107.236 36.2222H110.792V39.7778H107.236V36.2222ZM110.792 36.2222H114.347V39.7778H110.792V36.2222ZM114.347 36.2222H117.903V39.7778H114.347V36.2222ZM135.681 14.8889H139.236V18.4444H135.681V14.8889ZM132.125 14.8889H135.681V18.4444H132.125V14.8889ZM132.125 18.4444H135.681V22H132.125V18.4444ZM128.569 18.4444H132.125V22H128.569V18.4444ZM128.569 14.8889H132.125V18.4444H128.569V14.8889ZM128.569 22H132.125V25.5556H128.569V22ZM128.569 25.5556H132.125V29.1111H128.569V25.5556ZM128.569 29.1111H132.125V32.6667H128.569V29.1111ZM128.569 32.6667H132.125V36.2222H128.569V32.6667ZM132.125 32.6667H135.681V36.2222H132.125V32.6667ZM132.125 36.2222H135.681V39.7778H132.125V36.2222ZM135.681 32.6667H139.236V36.2222H135.681V32.6667ZM135.681 29.1111H139.236V32.6667H135.681V29.1111ZM135.681 25.5556H139.236V29.1111H135.681V25.5556ZM135.681 22H139.236V25.5556H135.681V22ZM135.681 18.4444H139.236V22H135.681V18.4444ZM132.125 25.5556H135.681V29.1111H132.125V25.5556ZM132.125 29.1111H135.681V32.6667H132.125V29.1111ZM132.125 22H135.681V25.5556H132.125V22ZM135.681 36.2222H139.236V39.7778H135.681V36.2222ZM132.125 39.7778H135.681V43.3333H132.125V39.7778ZM128.569 36.2222H132.125V39.7778H128.569V36.2222ZM128.569 43.3333H132.125V46.8889H128.569V43.3333ZM125.014 43.3333H128.569V46.8889H125.014V43.3333ZM125.014 46.8889H128.569V50.4444H125.014V46.8889ZM121.458 46.8889H125.014V50.4444H121.458V46.8889ZM121.458 50.4444H125.014V54H121.458V50.4444ZM117.903 50.4444H121.458V54H117.903V50.4444ZM117.903 54H121.458V57.5556H117.903V54ZM114.347 54H117.903V57.5556H114.347V54ZM114.347 57.5556H117.903V61.1111H114.347V57.5556ZM110.792 57.5556H114.347V61.1111H110.792V57.5556ZM110.792 61.1111H114.347V64.6667H110.792V61.1111ZM107.236 61.1111H110.792V64.6667H107.236V61.1111ZM103.681 61.1111H107.236V64.6667H103.681V61.1111ZM103.681 57.5556H107.236V61.1111H103.681V57.5556ZM107.236 57.5556H110.792V61.1111H107.236V57.5556ZM107.236 54H110.792V57.5556H107.236V54ZM110.792 54H114.347V57.5556H110.792V54ZM110.792 50.4444H114.347V54H110.792V50.4444ZM114.347 50.4444H117.903V54H114.347V50.4444ZM114.347 46.8889H117.903V50.4444H114.347V46.8889ZM114.347 43.3333H117.903V46.8889H114.347V43.3333ZM110.792 43.3333H114.347V46.8889H110.792V43.3333ZM110.792 39.7778H114.347V43.3333H110.792V39.7778ZM107.236 39.7778H110.792V43.3333H107.236V39.7778ZM114.347 39.7778H117.903V43.3333H114.347V39.7778ZM117.903 43.3333H121.458V46.8889H117.903V43.3333ZM117.903 46.8889H121.458V50.4444H117.903V46.8889ZM121.458 43.3333H125.014V46.8889H121.458V43.3333ZM125.014 39.7778H128.569V43.3333H125.014V39.7778ZM128.569 39.7778H132.125V43.3333H128.569V39.7778ZM121.458 39.7778H125.014V43.3333H121.458V39.7778ZM125.014 36.2222H128.569V39.7778H125.014V36.2222ZM117.903 39.7778H121.458V43.3333H117.903V39.7778ZM174.823 0.666664H178.378V4.22222H174.823V0.666664ZM178.378 0.666664H181.934V4.22222H178.378V0.666664ZM181.934 0.666664H185.49V4.22222H181.934V0.666664ZM185.49 0.666664H189.045V4.22222H185.49V0.666664ZM189.045 0.666664H192.601V4.22222H189.045V0.666664ZM192.601 0.666664H196.156V4.22222H192.601V0.666664ZM192.601 4.22222H196.156V7.77778H192.601V4.22222ZM196.156 4.22222H199.712V7.77778H196.156V4.22222ZM189.045 4.22222H192.601V7.77778H189.045V4.22222ZM185.49 4.22222H189.045V7.77778H185.49V4.22222ZM181.934 4.22222H185.49V7.77778H181.934V4.22222ZM178.378 4.22222H181.934V7.77778H178.378V4.22222ZM174.823 4.22222H178.378V7.77778H174.823V4.22222ZM171.267 7.77778H174.823V11.3333H171.267V7.77778ZM171.267 4.22222H174.823V7.77778H171.267V4.22222ZM167.712 7.77778H171.267V11.3333H167.712V7.77778ZM174.823 7.77778H178.378V11.3333H174.823V7.77778ZM178.378 7.77778H181.934V11.3333H178.378V7.77778ZM181.934 7.77778H185.49V11.3333H181.934V7.77778ZM185.49 7.77778H189.045V11.3333H185.49V7.77778ZM189.045 7.77778H192.601V11.3333H189.045V7.77778ZM192.601 7.77778H196.156V11.3333H192.601V7.77778ZM196.156 7.77778H199.712V11.3333H196.156V7.77778ZM199.712 7.77778H203.267V11.3333H199.712V7.77778ZM199.712 11.3333H203.267V14.8889H199.712V11.3333ZM196.156 11.3333H199.712V14.8889H196.156V11.3333ZM192.601 11.3333H196.156V14.8889H192.601V11.3333ZM199.712 36.2222H203.267V39.7778H199.712V36.2222ZM199.712 39.7778H203.267V43.3333H199.712V39.7778ZM199.712 43.3333H203.267V46.8889H199.712V43.3333ZM196.156 43.3333H199.712V46.8889H196.156V43.3333ZM196.156 39.7778H199.712V43.3333H196.156V39.7778ZM196.156 36.2222H199.712V39.7778H196.156V36.2222ZM192.601 36.2222H196.156V39.7778H192.601V36.2222ZM192.601 39.7778H196.156V43.3333H192.601V39.7778ZM189.045 39.7778H192.601V43.3333H189.045V39.7778ZM192.601 43.3333H196.156V46.8889H192.601V43.3333ZM196.156 46.8889H199.712V50.4444H196.156V46.8889ZM192.601 46.8889H196.156V50.4444H192.601V46.8889ZM189.045 43.3333H192.601V46.8889H189.045V43.3333ZM189.045 46.8889H192.601V50.4444H189.045V46.8889ZM192.601 50.4444H196.156V54H192.601V50.4444ZM189.045 50.4444H192.601V54H189.045V50.4444ZM185.49 50.4444H189.045V54H185.49V50.4444ZM181.934 50.4444H185.49V54H181.934V50.4444ZM178.378 50.4444H181.934V54H178.378V50.4444ZM174.823 50.4444H178.378V54H174.823V50.4444ZM174.823 46.8889H178.378V50.4444H174.823V46.8889ZM178.378 46.8889H181.934V50.4444H178.378V46.8889ZM178.378 43.3333H181.934V46.8889H178.378V43.3333ZM181.934 43.3333H185.49V46.8889H181.934V43.3333ZM185.49 43.3333H189.045V46.8889H185.49V43.3333ZM185.49 46.8889H189.045V50.4444H185.49V46.8889ZM181.934 46.8889H185.49V50.4444H181.934V46.8889ZM171.267 46.8889H174.823V50.4444H171.267V46.8889ZM174.823 43.3333H178.378V46.8889H174.823V43.3333ZM178.378 39.7778H181.934V43.3333H178.378V39.7778ZM174.823 39.7778H178.378V43.3333H174.823V39.7778ZM171.267 39.7778H174.823V43.3333H171.267V39.7778ZM171.267 43.3333H174.823V46.8889H171.267V43.3333ZM167.712 43.3333H171.267V46.8889H167.712V43.3333ZM167.712 39.7778H171.267V43.3333H167.712V39.7778ZM167.712 36.2222H171.267V39.7778H167.712V36.2222ZM167.712 32.6667H171.267V36.2222H167.712V32.6667ZM167.712 29.1111H171.267V32.6667H167.712V29.1111ZM167.712 25.5556H171.267V29.1111H167.712V25.5556ZM167.712 22H171.267V25.5556H167.712V22ZM167.712 18.4444H171.267V22H167.712V18.4444ZM167.712 14.8889H171.267V18.4444H167.712V14.8889ZM167.712 11.3333H171.267V14.8889H167.712V11.3333ZM171.267 11.3333H174.823V14.8889H171.267V11.3333ZM174.823 11.3333H178.378V14.8889H174.823V11.3333ZM178.378 11.3333H181.934V14.8889H178.378V11.3333ZM174.823 14.8889H178.378V18.4444H174.823V14.8889ZM174.823 18.4444H178.378V22H174.823V18.4444ZM174.823 22H178.378V25.5556H174.823V22ZM174.823 25.5556H178.378V29.1111H174.823V25.5556ZM174.823 29.1111H178.378V32.6667H174.823V29.1111ZM174.823 32.6667H178.378V36.2222H174.823V32.6667ZM174.823 36.2222H178.378V39.7778H174.823V36.2222ZM171.267 36.2222H174.823V39.7778H171.267V36.2222ZM171.267 32.6667H174.823V36.2222H171.267V32.6667ZM171.267 29.1111H174.823V32.6667H171.267V29.1111ZM171.267 25.5556H174.823V29.1111H171.267V25.5556ZM171.267 22H174.823V25.5556H171.267V22ZM171.267 18.4444H174.823V22H171.267V18.4444ZM171.267 14.8889H174.823V18.4444H171.267V14.8889ZM185.49 22H189.045V25.5556H185.49V22ZM189.045 22H192.601V25.5556H189.045V22ZM192.601 22H196.156V25.5556H192.601V22ZM196.156 22H199.712V25.5556H196.156V22ZM199.712 22H203.267V25.5556H199.712V22ZM199.712 25.5556H203.267V29.1111H199.712V25.5556ZM199.712 29.1111H203.267V32.6667H199.712V29.1111ZM199.712 32.6667H203.267V36.2222H199.712V32.6667ZM196.156 32.6667H199.712V36.2222H196.156V32.6667ZM192.601 32.6667H196.156V36.2222H192.601V32.6667ZM192.601 29.1111H196.156V32.6667H192.601V29.1111ZM192.601 25.5556H196.156V29.1111H192.601V25.5556ZM196.156 25.5556H199.712V29.1111H196.156V25.5556ZM196.156 29.1111H199.712V32.6667H196.156V29.1111ZM189.045 29.1111H192.601V32.6667H189.045V29.1111ZM185.49 29.1111H189.045V32.6667H185.49V29.1111ZM185.49 25.5556H189.045V29.1111H185.49V25.5556ZM189.045 25.5556H192.601V29.1111H189.045V25.5556ZM217.479 14.8889H221.035V18.4444H217.479V14.8889ZM213.924 18.4444H217.479V22H213.924V18.4444ZM213.924 22H217.479V25.5556H213.924V22ZM210.368 18.4444H213.924V22H210.368V18.4444ZM210.368 14.8889H213.924V18.4444H210.368V14.8889ZM213.924 14.8889H217.479V18.4444H213.924V14.8889ZM213.924 25.5556H217.479V29.1111H213.924V25.5556ZM210.368 25.5556H213.924V29.1111H210.368V25.5556ZM210.368 29.1111H213.924V32.6667H210.368V29.1111ZM210.368 22H213.924V25.5556H210.368V22ZM210.368 32.6667H213.924V36.2222H210.368V32.6667ZM210.368 36.2222H213.924V39.7778H210.368V36.2222ZM210.368 39.7778H213.924V43.3333H210.368V39.7778ZM210.368 43.3333H213.924V46.8889H210.368V43.3333ZM210.368 46.8889H213.924V50.4444H210.368V46.8889ZM213.924 46.8889H217.479V50.4444H213.924V46.8889ZM217.479 46.8889H221.035V50.4444H217.479V46.8889ZM217.479 50.4444H221.035V54H217.479V50.4444ZM213.924 50.4444H217.479V54H213.924V50.4444ZM210.368 50.4444H213.924V54H210.368V50.4444ZM217.479 43.3333H221.035V46.8889H217.479V43.3333ZM217.479 39.7778H221.035V43.3333H217.479V39.7778ZM217.479 36.2222H221.035V39.7778H217.479V36.2222ZM217.479 32.6667H221.035V36.2222H217.479V32.6667ZM217.479 29.1111H221.035V32.6667H217.479V29.1111ZM217.479 25.5556H221.035V29.1111H217.479V25.5556ZM217.479 22H221.035V25.5556H217.479V22ZM217.479 18.4444H221.035V22H217.479V18.4444ZM213.924 29.1111H217.479V32.6667H213.924V29.1111ZM213.924 36.2222H217.479V39.7778H213.924V36.2222ZM213.924 39.7778H217.479V43.3333H213.924V39.7778ZM213.924 43.3333H217.479V46.8889H213.924V43.3333ZM213.924 32.6667H217.479V36.2222H213.924V32.6667ZM235.257 22H238.813V25.5556H235.257V22ZM235.257 18.4444H238.813V22H235.257V18.4444ZM231.701 18.4444H235.257V22H231.701V18.4444ZM228.146 18.4444H231.701V22H228.146V18.4444ZM238.813 18.4444H242.368V22H238.813V18.4444ZM235.257 14.8889H238.813V18.4444H235.257V14.8889ZM231.701 14.8889H235.257V18.4444H231.701V14.8889ZM228.146 14.8889H231.701V18.4444H228.146V14.8889ZM224.59 14.8889H228.146V18.4444H224.59V14.8889ZM224.59 18.4444H228.146V22H224.59V18.4444ZM221.035 18.4444H224.59V22H221.035V18.4444ZM221.035 22H224.59V25.5556H221.035V22ZM231.701 22H235.257V25.5556H231.701V22ZM231.701 25.5556H235.257V29.1111H231.701V25.5556ZM228.146 22H231.701V25.5556H228.146V22ZM224.59 22H228.146V25.5556H224.59V22ZM221.035 25.5556H224.59V29.1111H221.035V25.5556ZM253.01 14.8889H256.566V18.4444H253.01V14.8889ZM256.566 14.8889H260.122V18.4444H256.566V14.8889ZM260.122 14.8889H263.677V18.4444H260.122V14.8889ZM263.677 14.8889H267.233V18.4444H263.677V14.8889ZM267.233 14.8889H270.788V18.4444H267.233V14.8889ZM270.788 14.8889H274.344V18.4444H270.788V14.8889ZM274.344 18.4444H277.899V22H274.344V18.4444ZM270.788 18.4444H274.344V22H270.788V18.4444ZM267.233 18.4444H270.788V22H267.233V18.4444ZM263.677 18.4444H267.233V22H263.677V18.4444ZM260.122 18.4444H263.677V22H260.122V18.4444ZM256.566 18.4444H260.122V22H256.566V18.4444ZM253.01 18.4444H256.566V22H253.01V18.4444ZM249.455 18.4444H253.01V22H249.455V18.4444ZM249.455 22H253.01V25.5556H249.455V22ZM253.01 22H256.566V25.5556H253.01V22ZM245.899 22H249.455V25.5556H245.899V22ZM245.899 25.5556H249.455V29.1111H245.899V25.5556ZM245.899 29.1111H249.455V32.6667H245.899V29.1111ZM249.455 29.1111H253.01V32.6667H249.455V29.1111ZM253.01 29.1111H256.566V32.6667H253.01V29.1111ZM253.01 25.5556H256.566V29.1111H253.01V25.5556ZM249.455 25.5556H253.01V29.1111H249.455V25.5556ZM249.455 32.6667H253.01V36.2222H249.455V32.6667ZM249.455 36.2222H253.01V39.7778H249.455V36.2222ZM249.455 39.7778H253.01V43.3333H249.455V39.7778ZM245.899 39.7778H249.455V43.3333H245.899V39.7778ZM245.899 43.3333H249.455V46.8889H245.899V43.3333ZM245.899 36.2222H249.455V39.7778H245.899V36.2222ZM245.899 32.6667H249.455V36.2222H245.899V32.6667ZM253.01 32.6667H256.566V36.2222H253.01V32.6667ZM253.01 36.2222H256.566V39.7778H253.01V36.2222ZM253.01 39.7778H256.566V43.3333H253.01V39.7778ZM253.01 43.3333H256.566V46.8889H253.01V43.3333ZM249.455 43.3333H253.01V46.8889H249.455V43.3333ZM249.455 46.8889H253.01V50.4444H249.455V46.8889ZM253.01 46.8889H256.566V50.4444H253.01V46.8889ZM256.566 46.8889H260.122V50.4444H256.566V46.8889ZM256.566 43.3333H260.122V46.8889H256.566V43.3333ZM253.01 50.4444H256.566V54H253.01V50.4444ZM256.566 50.4444H260.122V54H256.566V50.4444ZM260.122 50.4444H263.677V54H260.122V50.4444ZM263.677 50.4444H267.233V54H263.677V50.4444ZM267.233 50.4444H270.788V54H267.233V50.4444ZM270.788 50.4444H274.344V54H270.788V50.4444ZM267.233 46.8889H270.788V50.4444H267.233V46.8889ZM263.677 46.8889H267.233V50.4444H263.677V46.8889ZM260.122 46.8889H263.677V50.4444H260.122V46.8889ZM270.788 46.8889H274.344V50.4444H270.788V46.8889ZM274.344 46.8889H277.899V50.4444H274.344V46.8889ZM270.788 43.3333H274.344V46.8889H270.788V43.3333ZM267.233 43.3333H270.788V46.8889H267.233V43.3333ZM274.344 43.3333H277.899V46.8889H274.344V43.3333ZM277.899 43.3333H281.455V46.8889H277.899V43.3333ZM277.899 39.7778H281.455V43.3333H277.899V39.7778ZM274.344 36.2222H277.899V39.7778H274.344V36.2222ZM274.344 39.7778H277.899V43.3333H274.344V39.7778ZM270.788 39.7778H274.344V43.3333H270.788V39.7778ZM277.899 36.2222H281.455V39.7778H277.899V36.2222ZM277.899 32.6667H281.455V36.2222H277.899V32.6667ZM274.344 32.6667H277.899V36.2222H274.344V32.6667ZM274.344 29.1111H277.899V32.6667H274.344V29.1111ZM274.344 25.5556H277.899V29.1111H274.344V25.5556ZM277.899 25.5556H281.455V29.1111H277.899V25.5556ZM277.899 22H281.455V25.5556H277.899V22ZM277.899 29.1111H281.455V32.6667H277.899V29.1111ZM270.788 32.6667H274.344V36.2222H270.788V32.6667ZM270.788 36.2222H274.344V39.7778H270.788V36.2222ZM270.788 29.1111H274.344V32.6667H270.788V29.1111ZM270.788 25.5556H274.344V29.1111H270.788V25.5556ZM270.788 22H274.344V25.5556H270.788V22ZM267.233 22H270.788V25.5556H267.233V22ZM274.344 22H277.899V25.5556H274.344V22ZM256.566 22H260.122V25.5556H256.566V22ZM260.122 22H263.677V25.5556H260.122V22ZM263.677 22H267.233V25.5556H263.677V22ZM260.122 43.3333H263.677V46.8889H260.122V43.3333ZM263.677 43.3333H267.233V46.8889H263.677V43.3333ZM292.111 14.8889H295.667V18.4444H292.111V14.8889ZM288.556 14.8889H292.111V18.4444H288.556V14.8889ZM295.667 14.8889H299.222V18.4444H295.667V14.8889ZM295.667 18.4444H299.222V22H295.667V18.4444ZM295.667 22H299.222V25.5556H295.667V22ZM295.667 25.5556H299.222V29.1111H295.667V25.5556ZM295.667 29.1111H299.222V32.6667H295.667V29.1111ZM295.667 32.6667H299.222V36.2222H295.667V32.6667ZM292.111 32.6667H295.667V36.2222H292.111V32.6667ZM292.111 29.1111H295.667V32.6667H292.111V29.1111ZM292.111 25.5556H295.667V29.1111H292.111V25.5556ZM292.111 22H295.667V25.5556H292.111V22ZM292.111 18.4444H295.667V22H292.111V18.4444ZM288.556 18.4444H292.111V22H288.556V18.4444ZM288.556 22H292.111V25.5556H288.556V22ZM288.556 25.5556H292.111V29.1111H288.556V25.5556ZM288.556 29.1111H292.111V32.6667H288.556V29.1111ZM288.556 32.6667H292.111V36.2222H288.556V32.6667ZM288.556 36.2222H292.111V39.7778H288.556V36.2222ZM292.111 36.2222H295.667V39.7778H292.111V36.2222ZM295.667 36.2222H299.222V39.7778H295.667V36.2222ZM292.111 39.7778H295.667V43.3333H292.111V39.7778ZM295.667 39.7778H299.222V43.3333H295.667V39.7778ZM299.222 39.7778H302.778V43.3333H299.222V39.7778ZM295.667 43.3333H299.222V46.8889H295.667V43.3333ZM299.222 43.3333H302.778V46.8889H299.222V43.3333ZM299.222 46.8889H302.778V50.4444H299.222V46.8889ZM302.778 46.8889H306.333V50.4444H302.778V46.8889ZM302.778 50.4444H306.333V54H302.778V50.4444ZM302.778 43.3333H306.333V46.8889H302.778V43.3333ZM306.333 43.3333H309.889V46.8889H306.333V43.3333ZM306.333 46.8889H309.889V50.4444H306.333V46.8889ZM306.333 39.7778H309.889V43.3333H306.333V39.7778ZM309.889 39.7778H313.444V43.3333H309.889V39.7778ZM309.889 43.3333H313.444V46.8889H309.889V43.3333ZM306.333 36.2222H309.889V39.7778H306.333V36.2222ZM302.778 39.7778H306.333V43.3333H302.778V39.7778ZM299.222 36.2222H302.778V39.7778H299.222V36.2222ZM313.444 14.8889H317V18.4444H313.444V14.8889ZM309.889 14.8889H313.444V18.4444H309.889V14.8889ZM317 14.8889H320.556V18.4444H317V14.8889ZM317 18.4444H320.556V22H317V18.4444ZM317 22H320.556V25.5556H317V22ZM317 25.5556H320.556V29.1111H317V25.5556ZM317 29.1111H320.556V32.6667H317V29.1111ZM317 32.6667H320.556V36.2222H317V32.6667ZM313.444 32.6667H317V36.2222H313.444V32.6667ZM313.444 25.5556H317V29.1111H313.444V25.5556ZM313.444 22H317V25.5556H313.444V22ZM313.444 18.4444H317V22H313.444V18.4444ZM309.889 18.4444H313.444V22H309.889V18.4444ZM309.889 22H313.444V25.5556H309.889V22ZM309.889 25.5556H313.444V29.1111H309.889V25.5556ZM309.889 29.1111H313.444V32.6667H309.889V29.1111ZM309.889 32.6667H313.444V36.2222H309.889V32.6667ZM309.889 36.2222H313.444V39.7778H309.889V36.2222ZM313.444 36.2222H317V39.7778H313.444V36.2222ZM317 36.2222H320.556V39.7778H317V36.2222ZM313.444 39.7778H317V43.3333H313.444V39.7778ZM320.556 39.7778H324.111V43.3333H320.556V39.7778ZM317 43.3333H320.556V46.8889H317V43.3333ZM320.556 43.3333H324.111V46.8889H320.556V43.3333ZM320.556 46.8889H324.111V50.4444H320.556V46.8889ZM324.111 46.8889H327.667V50.4444H324.111V46.8889ZM324.111 50.4444H327.667V54H324.111V50.4444ZM324.111 43.3333H327.667V46.8889H324.111V43.3333ZM327.667 43.3333H331.222V46.8889H327.667V43.3333ZM327.667 46.8889H331.222V50.4444H327.667V46.8889ZM327.667 39.7778H331.222V43.3333H327.667V39.7778ZM331.222 39.7778H334.778V43.3333H331.222V39.7778ZM331.222 43.3333H334.778V46.8889H331.222V43.3333ZM334.778 39.7778H338.333V43.3333H334.778V39.7778ZM334.778 36.2222H338.333V39.7778H334.778V36.2222ZM331.222 36.2222H334.778V39.7778H331.222V36.2222ZM334.778 32.6667H338.333V36.2222H334.778V32.6667ZM338.333 32.6667H341.889V36.2222H338.333V32.6667ZM338.333 36.2222H341.889V39.7778H338.333V36.2222ZM334.778 29.1111H338.333V32.6667H334.778V29.1111ZM331.222 29.1111H334.778V32.6667H331.222V29.1111ZM331.222 32.6667H334.778V36.2222H331.222V32.6667ZM331.222 25.5556H334.778V29.1111H331.222V25.5556ZM331.222 22H334.778V25.5556H331.222V22ZM331.222 18.4444H334.778V22H331.222V18.4444ZM331.222 14.8889H334.778V18.4444H331.222V14.8889ZM334.778 14.8889H338.333V18.4444H334.778V14.8889ZM338.333 18.4444H341.889V22H338.333V18.4444ZM338.333 22H341.889V25.5556H338.333V22ZM338.333 25.5556H341.889V29.1111H338.333V25.5556ZM338.333 29.1111H341.889V32.6667H338.333V29.1111ZM338.333 14.8889H341.889V18.4444H338.333V14.8889ZM334.778 18.4444H338.333V22H334.778V18.4444ZM334.778 22H338.333V25.5556H334.778V22ZM334.778 25.5556H338.333V29.1111H334.778V25.5556ZM327.667 36.2222H331.222V39.7778H327.667V36.2222ZM324.111 39.7778H327.667V43.3333H324.111V39.7778ZM320.556 36.2222H324.111V39.7778H320.556V36.2222ZM317 39.7778H320.556V43.3333H317V39.7778ZM313.444 29.1111H317V32.6667H313.444V29.1111ZM356.135 14.8889H359.691V18.4444H356.135V14.8889ZM352.58 18.4444H356.135V22H352.58V18.4444ZM352.58 22H356.135V25.5556H352.58V22ZM349.024 18.4444H352.58V22H349.024V18.4444ZM349.024 14.8889H352.58V18.4444H349.024V14.8889ZM352.58 14.8889H356.135V18.4444H352.58V14.8889ZM352.58 25.5556H356.135V29.1111H352.58V25.5556ZM349.024 25.5556H352.58V29.1111H349.024V25.5556ZM349.024 29.1111H352.58V32.6667H349.024V29.1111ZM349.024 22H352.58V25.5556H349.024V22ZM349.024 32.6667H352.58V36.2222H349.024V32.6667ZM349.024 36.2222H352.58V39.7778H349.024V36.2222ZM349.024 39.7778H352.58V43.3333H349.024V39.7778ZM349.024 43.3333H352.58V46.8889H349.024V43.3333ZM349.024 46.8889H352.58V50.4444H349.024V46.8889ZM352.58 46.8889H356.135V50.4444H352.58V46.8889ZM356.135 46.8889H359.691V50.4444H356.135V46.8889ZM356.135 50.4444H359.691V54H356.135V50.4444ZM352.58 50.4444H356.135V54H352.58V50.4444ZM349.024 50.4444H352.58V54H349.024V50.4444ZM356.135 43.3333H359.691V46.8889H356.135V43.3333ZM356.135 39.7778H359.691V43.3333H356.135V39.7778ZM356.135 36.2222H359.691V39.7778H356.135V36.2222ZM356.135 32.6667H359.691V36.2222H356.135V32.6667ZM356.135 29.1111H359.691V32.6667H356.135V29.1111ZM356.135 25.5556H359.691V29.1111H356.135V25.5556ZM356.135 22H359.691V25.5556H356.135V22ZM356.135 18.4444H359.691V22H356.135V18.4444ZM352.58 29.1111H356.135V32.6667H352.58V29.1111ZM352.58 36.2222H356.135V39.7778H352.58V36.2222ZM352.58 39.7778H356.135V43.3333H352.58V39.7778ZM352.58 43.3333H356.135V46.8889H352.58V43.3333ZM352.58 32.6667H356.135V36.2222H352.58V32.6667ZM373.913 50.4444H377.469V54H373.913V50.4444ZM377.469 50.4444H381.024V54H377.469V50.4444ZM377.469 46.8889H381.024V50.4444H377.469V46.8889ZM377.469 43.3333H381.024V46.8889H377.469V43.3333ZM377.469 39.7778H381.024V43.3333H377.469V39.7778ZM381.024 39.7778H384.58V43.3333H381.024V39.7778ZM381.024 36.2222H384.58V39.7778H381.024V36.2222ZM381.024 43.3333H384.58V46.8889H381.024V43.3333ZM381.024 46.8889H384.58V50.4444H381.024V46.8889ZM381.024 50.4444H384.58V54H381.024V50.4444ZM373.913 46.8889H377.469V50.4444H373.913V46.8889ZM373.913 43.3333H377.469V46.8889H373.913V43.3333ZM373.913 39.7778H377.469V43.3333H373.913V39.7778ZM373.913 36.2222H377.469V39.7778H373.913V36.2222ZM373.913 32.6667H377.469V36.2222H373.913V32.6667ZM373.913 29.1111H377.469V32.6667H373.913V29.1111ZM373.913 25.5556H377.469V29.1111H373.913V25.5556ZM373.913 22H377.469V25.5556H373.913V22ZM373.913 18.4444H377.469V22H373.913V18.4444ZM370.358 18.4444H373.913V22H370.358V18.4444ZM366.802 18.4444H370.358V22H366.802V18.4444ZM377.469 22H381.024V25.5556H377.469V22ZM377.469 25.5556H381.024V29.1111H377.469V25.5556ZM377.469 29.1111H381.024V32.6667H377.469V29.1111ZM377.469 32.6667H381.024V36.2222H377.469V32.6667ZM377.469 36.2222H381.024V39.7778H377.469V36.2222ZM381.024 32.6667H384.58V36.2222H381.024V32.6667ZM381.024 29.1111H384.58V32.6667H381.024V29.1111ZM381.024 25.5556H384.58V29.1111H381.024V25.5556ZM381.024 22H384.58V25.5556H381.024V22ZM377.469 18.4444H381.024V22H377.469V18.4444ZM373.913 14.8889H377.469V18.4444H373.913V14.8889ZM370.358 14.8889H373.913V18.4444H370.358V14.8889ZM366.802 14.8889H370.358V18.4444H366.802V14.8889ZM363.247 14.8889H366.802V18.4444H363.247V14.8889ZM363.247 18.4444H366.802V22H363.247V18.4444ZM359.691 18.4444H363.247V22H359.691V18.4444ZM359.691 22H363.247V25.5556H359.691V22ZM363.247 22H366.802V25.5556H363.247V22ZM366.802 22H370.358V25.5556H366.802V22ZM370.358 22H373.913V25.5556H370.358V22ZM359.691 25.5556H363.247V29.1111H359.691V25.5556ZM420.167 0.666664H423.722V4.22222H420.167V0.666664ZM423.722 0.666664H427.278V4.22222H423.722V0.666664ZM427.278 0.666664H430.833V4.22222H427.278V0.666664ZM430.833 0.666664H434.389V4.22222H430.833V0.666664ZM434.389 0.666664H437.944V4.22222H434.389V0.666664ZM437.944 0.666664H441.5V4.22222H437.944V0.666664ZM437.944 4.22222H441.5V7.77778H437.944V4.22222ZM441.5 4.22222H445.056V7.77778H441.5V4.22222ZM434.389 4.22222H437.944V7.77778H434.389V4.22222ZM430.833 4.22222H434.389V7.77778H430.833V4.22222ZM427.278 4.22222H430.833V7.77778H427.278V4.22222ZM423.722 4.22222H427.278V7.77778H423.722V4.22222ZM420.167 4.22222H423.722V7.77778H420.167V4.22222ZM416.611 7.77778H420.167V11.3333H416.611V7.77778ZM416.611 4.22222H420.167V7.77778H416.611V4.22222ZM413.056 7.77778H416.611V11.3333H413.056V7.77778ZM420.167 7.77778H423.722V11.3333H420.167V7.77778ZM423.722 7.77778H427.278V11.3333H423.722V7.77778ZM427.278 7.77778H430.833V11.3333H427.278V7.77778ZM430.833 7.77778H434.389V11.3333H430.833V7.77778ZM434.389 7.77778H437.944V11.3333H434.389V7.77778ZM437.944 7.77778H441.5V11.3333H437.944V7.77778ZM441.5 7.77778H445.056V11.3333H441.5V7.77778ZM445.056 7.77778H448.611V11.3333H445.056V7.77778ZM445.056 11.3333H448.611V14.8889H445.056V11.3333ZM441.5 11.3333H445.056V14.8889H441.5V11.3333ZM437.944 11.3333H441.5V14.8889H437.944V11.3333ZM445.056 36.2222H448.611V39.7778H445.056V36.2222ZM445.056 39.7778H448.611V43.3333H445.056V39.7778ZM445.056 43.3333H448.611V46.8889H445.056V43.3333ZM441.5 43.3333H445.056V46.8889H441.5V43.3333ZM441.5 39.7778H445.056V43.3333H441.5V39.7778ZM441.5 36.2222H445.056V39.7778H441.5V36.2222ZM437.944 36.2222H441.5V39.7778H437.944V36.2222ZM437.944 39.7778H441.5V43.3333H437.944V39.7778ZM434.389 39.7778H437.944V43.3333H434.389V39.7778ZM437.944 43.3333H441.5V46.8889H437.944V43.3333ZM441.5 46.8889H445.056V50.4444H441.5V46.8889ZM437.944 46.8889H441.5V50.4444H437.944V46.8889ZM434.389 43.3333H437.944V46.8889H434.389V43.3333ZM434.389 46.8889H437.944V50.4444H434.389V46.8889ZM437.944 50.4444H441.5V54H437.944V50.4444ZM434.389 50.4444H437.944V54H434.389V50.4444ZM430.833 50.4444H434.389V54H430.833V50.4444ZM427.278 50.4444H430.833V54H427.278V50.4444ZM423.722 50.4444H427.278V54H423.722V50.4444ZM420.167 50.4444H423.722V54H420.167V50.4444ZM420.167 46.8889H423.722V50.4444H420.167V46.8889ZM423.722 46.8889H427.278V50.4444H423.722V46.8889ZM423.722 43.3333H427.278V46.8889H423.722V43.3333ZM427.278 43.3333H430.833V46.8889H427.278V43.3333ZM430.833 43.3333H434.389V46.8889H430.833V43.3333ZM430.833 46.8889H434.389V50.4444H430.833V46.8889ZM427.278 46.8889H430.833V50.4444H427.278V46.8889ZM416.611 46.8889H420.167V50.4444H416.611V46.8889ZM420.167 43.3333H423.722V46.8889H420.167V43.3333ZM423.722 39.7778H427.278V43.3333H423.722V39.7778ZM420.167 39.7778H423.722V43.3333H420.167V39.7778ZM416.611 39.7778H420.167V43.3333H416.611V39.7778ZM416.611 43.3333H420.167V46.8889H416.611V43.3333ZM413.056 43.3333H416.611V46.8889H413.056V43.3333ZM413.056 39.7778H416.611V43.3333H413.056V39.7778ZM413.056 36.2222H416.611V39.7778H413.056V36.2222ZM413.056 32.6667H416.611V36.2222H413.056V32.6667ZM413.056 29.1111H416.611V32.6667H413.056V29.1111ZM413.056 25.5556H416.611V29.1111H413.056V25.5556ZM413.056 22H416.611V25.5556H413.056V22ZM413.056 18.4444H416.611V22H413.056V18.4444ZM413.056 14.8889H416.611V18.4444H413.056V14.8889ZM413.056 11.3333H416.611V14.8889H413.056V11.3333ZM416.611 11.3333H420.167V14.8889H416.611V11.3333ZM420.167 11.3333H423.722V14.8889H420.167V11.3333ZM423.722 11.3333H427.278V14.8889H423.722V11.3333ZM420.167 14.8889H423.722V18.4444H420.167V14.8889ZM420.167 18.4444H423.722V22H420.167V18.4444ZM420.167 22H423.722V25.5556H420.167V22ZM420.167 25.5556H423.722V29.1111H420.167V25.5556ZM420.167 29.1111H423.722V32.6667H420.167V29.1111ZM420.167 32.6667H423.722V36.2222H420.167V32.6667ZM420.167 36.2222H423.722V39.7778H420.167V36.2222ZM416.611 36.2222H420.167V39.7778H416.611V36.2222ZM416.611 32.6667H420.167V36.2222H416.611V32.6667ZM416.611 29.1111H420.167V32.6667H416.611V29.1111ZM416.611 25.5556H420.167V29.1111H416.611V25.5556ZM416.611 22H420.167V25.5556H416.611V22ZM416.611 18.4444H420.167V22H416.611V18.4444ZM416.611 14.8889H420.167V18.4444H416.611V14.8889ZM430.833 22H434.389V25.5556H430.833V22ZM434.389 22H437.944V25.5556H434.389V22ZM437.944 22H441.5V25.5556H437.944V22ZM441.5 22H445.056V25.5556H441.5V22ZM445.056 22H448.611V25.5556H445.056V22ZM445.056 25.5556H448.611V29.1111H445.056V25.5556ZM445.056 29.1111H448.611V32.6667H445.056V29.1111ZM445.056 32.6667H448.611V36.2222H445.056V32.6667ZM441.5 32.6667H445.056V36.2222H441.5V32.6667ZM437.944 32.6667H441.5V36.2222H437.944V32.6667ZM437.944 29.1111H441.5V32.6667H437.944V29.1111ZM437.944 25.5556H441.5V29.1111H437.944V25.5556ZM441.5 25.5556H445.056V29.1111H441.5V25.5556ZM441.5 29.1111H445.056V32.6667H441.5V29.1111ZM434.389 29.1111H437.944V32.6667H434.389V29.1111ZM430.833 29.1111H434.389V32.6667H430.833V29.1111ZM430.833 25.5556H434.389V29.1111H430.833V25.5556ZM434.389 25.5556H437.944V29.1111H434.389V25.5556ZM484.156 54H480.601V50.4444H484.156V54ZM477.045 54H473.49V50.4444H477.045V54ZM473.49 54H469.934V50.4444H473.49V54ZM469.934 54H466.378V50.4444H469.934V54ZM466.378 54H462.823V50.4444H466.378V54ZM462.823 50.4444H459.267V46.8889H462.823V50.4444ZM466.378 50.4444H462.823V46.8889H466.378V50.4444ZM469.934 50.4444H466.378V46.8889H469.934V50.4444ZM473.49 50.4444H469.934V46.8889H473.49V50.4444ZM477.045 50.4444H473.49V46.8889H477.045V50.4444ZM480.601 50.4444H477.045V46.8889H480.601V50.4444ZM484.156 50.4444H480.601V46.8889H484.156V50.4444ZM487.712 50.4444H484.156V46.8889H487.712V50.4444ZM487.712 46.8889H484.156V43.3333H487.712V46.8889ZM484.156 46.8889H480.601V43.3333H484.156V46.8889ZM491.267 46.8889H487.712V43.3333H491.267V46.8889ZM491.267 43.3333H487.712V39.7778H491.267V43.3333ZM491.267 39.7778H487.712V36.2222H491.267V39.7778ZM487.712 39.7778H484.156V36.2222H487.712V39.7778ZM484.156 39.7778H480.601V36.2222H484.156V39.7778ZM484.156 43.3333H480.601V39.7778H484.156V43.3333ZM487.712 43.3333H484.156V39.7778H487.712V43.3333ZM487.712 36.2222H484.156V32.6667H487.712V36.2222ZM487.712 32.6667H484.156V29.1111H487.712V32.6667ZM487.712 29.1111H484.156V25.5556H487.712V29.1111ZM491.267 29.1111H487.712V25.5556H491.267V29.1111ZM491.267 25.5556H487.712V22H491.267V25.5556ZM491.267 32.6667H487.712V29.1111H491.267V32.6667ZM491.267 36.2222H487.712V32.6667H491.267V36.2222ZM484.156 36.2222H480.601V32.6667H484.156V36.2222ZM484.156 32.6667H480.601V29.1111H484.156V32.6667ZM484.156 29.1111H480.601V25.5556H484.156V29.1111ZM484.156 25.5556H480.601V22H484.156V25.5556ZM487.712 25.5556H484.156V22H487.712V25.5556ZM487.712 22H484.156V18.4444H487.712V22ZM484.156 22H480.601V18.4444H484.156V22ZM480.601 22H477.045V18.4444H480.601V22ZM480.601 25.5556H477.045V22H480.601V25.5556ZM484.156 18.4444H480.601V14.8889H484.156V18.4444ZM480.601 18.4444H477.045V14.8889H480.601V18.4444ZM477.045 18.4444H473.49V14.8889H477.045V18.4444ZM473.49 18.4444H469.934V14.8889H473.49V18.4444ZM469.934 18.4444H466.378V14.8889H469.934V18.4444ZM466.378 18.4444H462.823V14.8889H466.378V18.4444ZM469.934 22H466.378V18.4444H469.934V22ZM473.49 22H469.934V18.4444H473.49V22ZM477.045 22H473.49V18.4444H477.045V22ZM466.378 22H462.823V18.4444H466.378V22ZM462.823 22H459.267V18.4444H462.823V22ZM466.378 25.5556H462.823V22H466.378V25.5556ZM469.934 25.5556H466.378V22H469.934V25.5556ZM462.823 25.5556H459.267V22H462.823V25.5556ZM459.267 25.5556H455.712V22H459.267V25.5556ZM462.823 43.3333H459.267V39.7778H462.823V43.3333ZM459.267 43.3333H455.712V39.7778H459.267V43.3333ZM459.267 46.8889H455.712V43.3333H459.267V46.8889ZM466.378 43.3333H462.823V39.7778H466.378V43.3333ZM466.378 46.8889H462.823V43.3333H466.378V46.8889ZM462.823 46.8889H459.267V43.3333H462.823V46.8889ZM477.045 25.5556H473.49V22H477.045V25.5556ZM473.49 25.5556H469.934V22H473.49V25.5556ZM462.823 39.7778H459.267V36.2222H462.823V39.7778ZM466.378 39.7778H462.823V36.2222H466.378V39.7778ZM477.045 36.2222H473.49V32.6667H477.045V36.2222ZM473.49 36.2222H469.934V32.6667H473.49V36.2222ZM469.934 36.2222H466.378V32.6667H469.934V36.2222ZM466.378 36.2222H462.823V32.6667H466.378V36.2222ZM480.601 36.2222H477.045V32.6667H480.601V36.2222ZM487.712 46.8889H491.267V50.4444H487.712V46.8889ZM487.712 50.4444H491.267V54H487.712V50.4444ZM484.156 50.4444H487.712V54H484.156V50.4444ZM477.045 29.1111H480.601V32.6667H477.045V29.1111ZM473.49 29.1111H477.045V32.6667H473.49V29.1111ZM469.934 29.1111H473.49V32.6667H469.934V29.1111ZM466.378 29.1111H469.934V32.6667H466.378V29.1111ZM462.823 29.1111H466.378V32.6667H462.823V29.1111ZM459.267 32.6667H462.823V36.2222H459.267V32.6667ZM455.712 36.2222H459.267V39.7778H455.712V36.2222ZM466.378 43.3333H469.934V46.8889H466.378V43.3333ZM469.934 43.3333H473.49V46.8889H469.934V43.3333ZM473.49 43.3333H477.045V46.8889H473.49V43.3333ZM477.045 43.3333H480.601V46.8889H477.045V43.3333ZM505.479 14.8889H509.035V18.4444H505.479V14.8889ZM501.924 18.4444H505.479V22H501.924V18.4444ZM501.924 22H505.479V25.5556H501.924V22ZM498.368 18.4444H501.924V22H498.368V18.4444ZM498.368 14.8889H501.924V18.4444H498.368V14.8889ZM501.924 14.8889H505.479V18.4444H501.924V14.8889ZM501.924 25.5556H505.479V29.1111H501.924V25.5556ZM498.368 25.5556H501.924V29.1111H498.368V25.5556ZM498.368 29.1111H501.924V32.6667H498.368V29.1111ZM498.368 22H501.924V25.5556H498.368V22ZM498.368 32.6667H501.924V36.2222H498.368V32.6667ZM498.368 36.2222H501.924V39.7778H498.368V36.2222ZM498.368 39.7778H501.924V43.3333H498.368V39.7778ZM498.368 43.3333H501.924V46.8889H498.368V43.3333ZM498.368 46.8889H501.924V50.4444H498.368V46.8889ZM501.924 46.8889H505.479V50.4444H501.924V46.8889ZM505.479 46.8889H509.035V50.4444H505.479V46.8889ZM505.479 50.4444H509.035V54H505.479V50.4444ZM501.924 50.4444H505.479V54H501.924V50.4444ZM498.368 50.4444H501.924V54H498.368V50.4444ZM505.479 43.3333H509.035V46.8889H505.479V43.3333ZM505.479 39.7778H509.035V43.3333H505.479V39.7778ZM505.479 36.2222H509.035V39.7778H505.479V36.2222ZM505.479 32.6667H509.035V36.2222H505.479V32.6667ZM505.479 29.1111H509.035V32.6667H505.479V29.1111ZM505.479 25.5556H509.035V29.1111H505.479V25.5556ZM505.479 22H509.035V25.5556H505.479V22ZM505.479 18.4444H509.035V22H505.479V18.4444ZM501.924 29.1111H505.479V32.6667H501.924V29.1111ZM501.924 36.2222H505.479V39.7778H501.924V36.2222ZM501.924 39.7778H505.479V43.3333H501.924V39.7778ZM501.924 43.3333H505.479V46.8889H501.924V43.3333ZM501.924 32.6667H505.479V36.2222H501.924V32.6667ZM519.701 50.4444H523.257V54H519.701V50.4444ZM523.257 50.4444H526.813V54H523.257V50.4444ZM523.257 46.8889H526.813V50.4444H523.257V46.8889ZM523.257 43.3333H526.813V46.8889H523.257V43.3333ZM523.257 39.7778H526.813V43.3333H523.257V39.7778ZM526.813 39.7778H530.368V43.3333H526.813V39.7778ZM526.813 36.2222H530.368V39.7778H526.813V36.2222ZM526.813 43.3333H530.368V46.8889H526.813V43.3333ZM526.813 46.8889H530.368V50.4444H526.813V46.8889ZM526.813 50.4444H530.368V54H526.813V50.4444ZM519.701 46.8889H523.257V50.4444H519.701V46.8889ZM519.701 43.3333H523.257V46.8889H519.701V43.3333ZM519.701 39.7778H523.257V43.3333H519.701V39.7778ZM519.701 36.2222H523.257V39.7778H519.701V36.2222ZM519.701 32.6667H523.257V36.2222H519.701V32.6667ZM519.701 29.1111H523.257V32.6667H519.701V29.1111ZM519.701 25.5556H523.257V29.1111H519.701V25.5556ZM519.701 22H523.257V25.5556H519.701V22ZM519.701 18.4444H523.257V22H519.701V18.4444ZM516.146 18.4444H519.701V22H516.146V18.4444ZM523.257 22H526.813V25.5556H523.257V22ZM523.257 25.5556H526.813V29.1111H523.257V25.5556ZM523.257 29.1111H526.813V32.6667H523.257V29.1111ZM523.257 32.6667H526.813V36.2222H523.257V32.6667ZM523.257 36.2222H526.813V39.7778H523.257V36.2222ZM526.813 32.6667H530.368V36.2222H526.813V32.6667ZM526.813 29.1111H530.368V32.6667H526.813V29.1111ZM526.813 25.5556H530.368V29.1111H526.813V25.5556ZM526.813 22H530.368V25.5556H526.813V22ZM523.257 18.4444H526.813V22H523.257V18.4444ZM519.701 14.8889H523.257V18.4444H519.701V14.8889ZM516.146 14.8889H519.701V18.4444H516.146V14.8889ZM512.59 14.8889H516.146V18.4444H512.59V14.8889ZM512.59 18.4444H516.146V22H512.59V18.4444ZM509.035 18.4444H512.59V22H509.035V18.4444ZM509.035 22H512.59V25.5556H509.035V22ZM512.59 22H516.146V25.5556H512.59V22ZM516.146 22H519.701V25.5556H516.146V22ZM509.035 25.5556H512.59V29.1111H509.035V25.5556ZM541.035 50.4444H544.59V54H541.035V50.4444ZM544.59 50.4444H548.146V54H544.59V50.4444ZM544.59 46.8889H548.146V50.4444H544.59V46.8889ZM544.59 43.3333H548.146V46.8889H544.59V43.3333ZM544.59 39.7778H548.146V43.3333H544.59V39.7778ZM548.146 39.7778H551.701V43.3333H548.146V39.7778ZM548.146 36.2222H551.701V39.7778H548.146V36.2222ZM548.146 43.3333H551.701V46.8889H548.146V43.3333ZM548.146 46.8889H551.701V50.4444H548.146V46.8889ZM548.146 50.4444H551.701V54H548.146V50.4444ZM541.035 46.8889H544.59V50.4444H541.035V46.8889ZM541.035 43.3333H544.59V46.8889H541.035V43.3333ZM541.035 39.7778H544.59V43.3333H541.035V39.7778ZM541.035 36.2222H544.59V39.7778H541.035V36.2222ZM541.035 32.6667H544.59V36.2222H541.035V32.6667ZM541.035 29.1111H544.59V32.6667H541.035V29.1111ZM541.035 25.5556H544.59V29.1111H541.035V25.5556ZM541.035 22H544.59V25.5556H541.035V22ZM541.035 18.4444H544.59V22H541.035V18.4444ZM537.479 18.4444H541.035V22H537.479V18.4444ZM544.59 22H548.146V25.5556H544.59V22ZM544.59 25.5556H548.146V29.1111H544.59V25.5556ZM544.59 29.1111H548.146V32.6667H544.59V29.1111ZM544.59 32.6667H548.146V36.2222H544.59V32.6667ZM544.59 36.2222H548.146V39.7778H544.59V36.2222ZM548.146 32.6667H551.701V36.2222H548.146V32.6667ZM548.146 29.1111H551.701V32.6667H548.146V29.1111ZM548.146 25.5556H551.701V29.1111H548.146V25.5556ZM548.146 22H551.701V25.5556H548.146V22ZM544.59 18.4444H548.146V22H544.59V18.4444ZM541.035 14.8889H544.59V18.4444H541.035V14.8889ZM537.479 14.8889H541.035V18.4444H537.479V14.8889ZM533.924 14.8889H537.479V18.4444H533.924V14.8889ZM533.924 18.4444H537.479V22H533.924V18.4444ZM530.368 18.4444H533.924V22H530.368V18.4444ZM530.368 22H533.924V25.5556H530.368V22ZM533.924 22H537.479V25.5556H533.924V22ZM537.479 22H541.035V25.5556H537.479V22ZM530.368 25.5556H533.924V29.1111H530.368V25.5556ZM565.948 14.8889H569.503V18.4444H565.948V14.8889ZM569.503 14.8889H573.059V18.4444H569.503V14.8889ZM573.059 14.8889H576.615V18.4444H573.059V14.8889ZM576.615 14.8889H580.17V18.4444H576.615V14.8889ZM580.17 14.8889H583.726V18.4444H580.17V14.8889ZM583.726 14.8889H587.281V18.4444H583.726V14.8889ZM587.281 18.4444H590.837V22H587.281V18.4444ZM583.726 18.4444H587.281V22H583.726V18.4444ZM580.17 18.4444H583.726V22H580.17V18.4444ZM576.615 18.4444H580.17V22H576.615V18.4444ZM573.059 18.4444H576.615V22H573.059V18.4444ZM569.503 18.4444H573.059V22H569.503V18.4444ZM565.948 18.4444H569.503V22H565.948V18.4444ZM562.392 18.4444H565.948V22H562.392V18.4444ZM562.392 22H565.948V25.5556H562.392V22ZM565.948 22H569.503V25.5556H565.948V22ZM558.837 22H562.392V25.5556H558.837V22ZM558.837 25.5556H562.392V29.1111H558.837V25.5556ZM558.837 29.1111H562.392V32.6667H558.837V29.1111ZM562.392 29.1111H565.948V32.6667H562.392V29.1111ZM565.948 29.1111H569.503V32.6667H565.948V29.1111ZM565.948 25.5556H569.503V29.1111H565.948V25.5556ZM562.392 25.5556H565.948V29.1111H562.392V25.5556ZM562.392 32.6667H565.948V36.2222H562.392V32.6667ZM562.392 36.2222H565.948V39.7778H562.392V36.2222ZM562.392 39.7778H565.948V43.3333H562.392V39.7778ZM558.837 39.7778H562.392V43.3333H558.837V39.7778ZM558.837 43.3333H562.392V46.8889H558.837V43.3333ZM558.837 36.2222H562.392V39.7778H558.837V36.2222ZM558.837 32.6667H562.392V36.2222H558.837V32.6667ZM565.948 32.6667H569.503V36.2222H565.948V32.6667ZM565.948 36.2222H569.503V39.7778H565.948V36.2222ZM565.948 39.7778H569.503V43.3333H565.948V39.7778ZM565.948 43.3333H569.503V46.8889H565.948V43.3333ZM562.392 43.3333H565.948V46.8889H562.392V43.3333ZM562.392 46.8889H565.948V50.4444H562.392V46.8889ZM565.948 46.8889H569.503V50.4444H565.948V46.8889ZM569.503 46.8889H573.059V50.4444H569.503V46.8889ZM569.503 43.3333H573.059V46.8889H569.503V43.3333ZM565.948 50.4444H569.503V54H565.948V50.4444ZM569.503 50.4444H573.059V54H569.503V50.4444ZM573.059 50.4444H576.615V54H573.059V50.4444ZM576.615 50.4444H580.17V54H576.615V50.4444ZM580.17 50.4444H583.726V54H580.17V50.4444ZM583.726 50.4444H587.281V54H583.726V50.4444ZM580.17 46.8889H583.726V50.4444H580.17V46.8889ZM576.615 46.8889H580.17V50.4444H576.615V46.8889ZM573.059 46.8889H576.615V50.4444H573.059V46.8889ZM583.726 46.8889H587.281V50.4444H583.726V46.8889ZM587.281 46.8889H590.837V50.4444H587.281V46.8889ZM583.726 43.3333H587.281V46.8889H583.726V43.3333ZM580.17 43.3333H583.726V46.8889H580.17V43.3333ZM587.281 43.3333H590.837V46.8889H587.281V43.3333ZM590.837 43.3333H594.392V46.8889H590.837V43.3333ZM587.281 25.5556H590.837V29.1111H587.281V25.5556ZM590.837 25.5556H594.392V29.1111H590.837V25.5556ZM590.837 22H594.392V25.5556H590.837V22ZM583.726 25.5556H587.281V29.1111H583.726V25.5556ZM583.726 22H587.281V25.5556H583.726V22ZM587.281 22H590.837V25.5556H587.281V22ZM573.059 43.3333H576.615V46.8889H573.059V43.3333ZM576.615 43.3333H580.17V46.8889H576.615V43.3333ZM590.837 29.1111H594.392V32.6667H590.837V29.1111ZM587.281 29.1111H590.837V32.6667H587.281V29.1111ZM583.726 29.1111H587.281V32.6667H583.726V29.1111ZM573.059 32.6667H576.615V36.2222H573.059V32.6667ZM576.615 32.6667H580.17V36.2222H576.615V32.6667ZM580.17 32.6667H583.726V36.2222H580.17V32.6667ZM583.726 32.6667H587.281V36.2222H583.726V32.6667ZM587.281 32.6667H590.837V36.2222H587.281V32.6667ZM590.837 32.6667H594.392V36.2222H590.837V32.6667ZM569.503 32.6667H573.059V36.2222H569.503V32.6667ZM569.503 22H573.059V25.5556H569.503V22ZM573.059 22H576.615V25.5556H573.059V22ZM576.615 22H580.17V25.5556H576.615V22ZM580.17 22H583.726V25.5556H580.17V22ZM590.837 36.2222H594.392V39.7778H590.837V36.2222ZM587.281 36.2222H590.837V39.7778H587.281V36.2222ZM580.17 36.2222H583.726V39.7778H580.17V36.2222ZM576.615 36.2222H580.17V39.7778H576.615V36.2222ZM573.059 36.2222H576.615V39.7778H573.059V36.2222ZM569.503 36.2222H573.059V39.7778H569.503V36.2222ZM583.726 36.2222H587.281V39.7778H583.726V36.2222ZM629.938 22H633.493V25.5556H629.938V22ZM629.938 18.4444H633.493V22H629.938V18.4444ZM626.382 22H629.938V25.5556H626.382V22ZM622.826 22H626.382V25.5556H622.826V22ZM622.826 18.4444H626.382V22H622.826V18.4444ZM626.382 18.4444H629.938V22H626.382V18.4444ZM626.382 14.8889H629.938V18.4444H626.382V14.8889ZM622.826 14.8889H626.382V18.4444H622.826V14.8889ZM619.271 14.8889H622.826V18.4444H619.271V14.8889ZM615.715 14.8889H619.271V18.4444H615.715V14.8889ZM612.16 14.8889H615.715V18.4444H612.16V14.8889ZM608.604 14.8889H612.16V18.4444H608.604V14.8889ZM608.604 18.4444H612.16V22H608.604V18.4444ZM612.16 18.4444H615.715V22H612.16V18.4444ZM615.715 18.4444H619.271V22H615.715V18.4444ZM619.271 18.4444H622.826V22H619.271V18.4444ZM605.049 18.4444H608.604V22H605.049V18.4444ZM605.049 22H608.604V25.5556H605.049V22ZM605.049 25.5556H608.604V29.1111H605.049V25.5556ZM608.604 25.5556H612.16V29.1111H608.604V25.5556ZM608.604 22H612.16V25.5556H608.604V22ZM601.493 25.5556H605.049V29.1111H601.493V25.5556ZM601.493 22H605.049V25.5556H601.493V22ZM608.604 29.1111H612.16V32.6667H608.604V29.1111ZM605.049 29.1111H608.604V32.6667H605.049V29.1111ZM608.604 32.6667H612.16V36.2222H608.604V32.6667ZM612.16 32.6667H615.715V36.2222H612.16V32.6667ZM615.715 32.6667H619.271V36.2222H615.715V32.6667ZM615.715 29.1111H619.271V32.6667H615.715V29.1111ZM619.271 29.1111H622.826V32.6667H619.271V29.1111ZM619.271 32.6667H622.826V36.2222H619.271V32.6667ZM622.826 32.6667H626.382V36.2222H622.826V32.6667ZM626.382 32.6667H629.938V36.2222H626.382V32.6667ZM626.382 29.1111H629.938V32.6667H626.382V29.1111ZM622.826 29.1111H626.382V32.6667H622.826V29.1111ZM612.16 29.1111H615.715V32.6667H612.16V29.1111ZM601.493 39.7778H605.049V43.3333H601.493V39.7778ZM601.493 43.3333H605.049V46.8889H601.493V43.3333ZM605.049 39.7778H608.604V43.3333H605.049V39.7778ZM608.604 39.7778H612.16V43.3333H608.604V39.7778ZM608.604 43.3333H612.16V46.8889H608.604V43.3333ZM605.049 43.3333H608.604V46.8889H605.049V43.3333ZM605.049 46.8889H608.604V50.4444H605.049V46.8889ZM608.604 46.8889H612.16V50.4444H608.604V46.8889ZM612.16 46.8889H615.715V50.4444H612.16V46.8889ZM612.16 43.3333H615.715V46.8889H612.16V43.3333ZM608.604 50.4444H612.16V54H608.604V50.4444ZM612.16 50.4444H615.715V54H612.16V50.4444ZM615.715 50.4444H619.271V54H615.715V50.4444ZM619.271 50.4444H622.826V54H619.271V50.4444ZM622.826 50.4444H626.382V54H622.826V50.4444ZM619.271 46.8889H622.826V50.4444H619.271V46.8889ZM615.715 46.8889H619.271V50.4444H615.715V46.8889ZM622.826 46.8889H626.382V50.4444H622.826V46.8889ZM626.382 46.8889H629.938V50.4444H626.382V46.8889ZM626.382 50.4444H629.938V54H626.382V50.4444ZM629.938 46.8889H633.493V50.4444H629.938V46.8889ZM626.382 43.3333H629.938V46.8889H626.382V43.3333ZM622.826 43.3333H626.382V46.8889H622.826V43.3333ZM629.938 43.3333H633.493V46.8889H629.938V43.3333ZM633.493 43.3333H637.049V46.8889H633.493V43.3333ZM633.493 39.7778H637.049V43.3333H633.493V39.7778ZM633.493 36.2222H637.049V39.7778H633.493V36.2222ZM629.938 36.2222H633.493V39.7778H629.938V36.2222ZM629.938 32.6667H633.493V36.2222H629.938V32.6667ZM626.382 36.2222H629.938V39.7778H626.382V36.2222ZM622.826 36.2222H626.382V39.7778H622.826V36.2222ZM626.382 39.7778H629.938V43.3333H626.382V39.7778ZM629.938 39.7778H633.493V43.3333H629.938V39.7778ZM612.16 22H615.715V25.5556H612.16V22Z" fill="white"/>
</svg>
